<svg width="54" height="54" viewBox="0 0 54 54" fill="none" xmlns="http://www.w3.org/2000/svg">
<path d="M0 47.0372C0 50.8831 3.11735 54 6.96279 54H47.0372C50.8831 54 54 50.8827 54 47.0372V6.96279C54 3.11692 50.8827 0 47.0372 0H6.96279C3.11692 0 0 3.11735 0 6.96279V47.0372Z" fill="#563D7C"/>
<path d="M22.3924 23.8862V16.2389H29.1238C29.7649 16.2389 30.3831 16.2924 30.9784 16.3992C31.5737 16.5061 32.1003 16.6969 32.5582 16.9716C33.0161 17.2464 33.3825 17.628 33.6572 18.1164C33.932 18.6048 34.0693 19.2307 34.0693 19.9939C34.0693 21.3676 33.6572 22.3598 32.833 22.9703C32.0087 23.5809 30.9555 23.8862 29.6733 23.8862H22.3924ZM15.2031 10.6523V43.3477H31.0471C32.5124 43.3477 33.9396 43.1645 35.3286 42.7982C36.7176 42.4318 37.954 41.8671 39.0377 41.1039C40.1215 40.3407 40.9839 39.3561 41.625 38.1503C42.2661 36.9444 42.5866 35.5173 42.5866 33.8688C42.5866 31.8234 42.0905 30.0757 41.0984 28.6256C40.1062 27.1755 38.6027 26.1605 36.5879 25.5805C38.0532 24.8783 39.1598 23.9778 39.9078 22.8787C40.6557 21.7797 41.0297 20.406 41.0297 18.7575C41.0297 17.2311 40.7778 15.9489 40.2741 14.911C39.7704 13.873 39.0606 13.0411 38.1448 12.4153C37.229 11.7895 36.13 11.3392 34.8478 11.0645C33.5656 10.7897 32.1461 10.6523 30.5892 10.6523H15.2031ZM22.3924 37.7611V28.7859H30.2228C31.7797 28.7859 33.0314 29.1446 33.9777 29.862C34.9241 30.5794 35.3973 31.7776 35.3973 33.4566C35.3973 34.3114 35.2523 35.0136 34.9623 35.5631C34.6723 36.1126 34.283 36.5476 33.7946 36.8681C33.3061 37.1887 32.7414 37.4176 32.1003 37.555C31.4592 37.6924 30.7876 37.7611 30.0854 37.7611H22.3924Z" fill="white"/>
</svg>
