<svg width="61" height="40" viewBox="0 0 61 40" fill="none" xmlns="http://www.w3.org/2000/svg">
<path d="M52.0228 38.1981C51.2586 38.1981 50.5472 37.7117 50.2964 36.9456C49.9843 35.9919 50.5044 34.9655 51.4586 34.6534C54.9153 33.5221 57.1486 30.4923 57.1486 26.9343C57.1486 22.4283 53.4829 18.762 48.9769 18.762C48.6639 18.762 48.3272 18.7867 47.9173 18.8399L46.1405 19.0703L45.8854 17.2963C44.7935 9.68926 38.1669 3.95262 30.4712 3.95262C24.1091 3.95262 18.4452 7.76137 16.0434 13.6562L15.5912 14.7652L14.3943 14.7871C8.89383 14.8882 4.41877 19.4436 4.41877 24.9413C4.41877 28.9548 6.74892 32.6149 10.3548 34.2654C11.2672 34.6834 11.6685 35.7615 11.2506 36.6739C10.8326 37.5863 9.75493 37.9867 8.84253 37.5702C3.94667 35.3293 0.783447 30.3726 0.783447 24.9413C0.783447 17.8739 6.22884 11.9534 13.1457 11.2262C16.3326 4.56248 23.0119 0.318665 30.4707 0.318665C39.398 0.318665 47.1583 6.57776 49.1707 15.13C55.5917 15.234 60.7834 20.4895 60.7834 26.9348C60.7834 32.0136 57.4901 36.5034 52.589 38.1074C52.4014 38.1687 52.2105 38.1981 52.0228 38.1981Z" fill="#0071CE"/>
<path d="M24.2249 38.9843C24.2244 38.9838 24.2244 38.9838 24.2239 38.9838C24.2234 38.9838 24.223 38.9833 24.2225 38.9833H24.222L24.2215 38.9829L24.2211 38.9824C24.2211 38.9824 24.2206 38.9824 24.2206 38.9819H24.2201L24.2196 38.9814C24.2201 38.981 24.2192 38.981 24.2192 38.981L24.2187 38.9805H24.2182L24.2177 38.98C24.2182 38.9805 24.2173 38.9795 24.2173 38.9795C24.2173 38.9795 24.2163 38.9791 24.2158 38.9791L24.2154 38.9786L24.2149 38.9781L24.2144 38.9776C24.213 38.9772 24.2135 38.9772 24.213 38.9772C24.2125 38.9776 24.2125 38.9767 24.212 38.9767L24.2116 38.9762C24.2116 38.9762 24.2111 38.9757 24.2106 38.9757L24.2101 38.9753C24.2097 38.9748 24.2087 38.9748 24.2082 38.9748C24.2078 38.9748 24.2068 38.9743 24.2064 38.9743C24.2059 38.9738 24.2059 38.9738 24.2054 38.9738H24.2049C24.2045 38.9734 24.204 38.9734 24.2035 38.9734C24.203 38.9729 24.2021 38.9729 24.2021 38.9729H24.2016L24.2007 38.9724C24.2002 38.9724 24.2002 38.9719 24.2002 38.9719H24.1997C24.1717 38.962 24.1418 38.9558 24.1105 38.9544H24.1096H24.1086H24.1077C24.1077 38.9544 24.1077 38.9544 24.1072 38.9544H24.1067H24.1063L24.1058 38.9539H24.1049H24.1039H24.1034H24.103H24.1025H24.1015H24.1011H24.1006H24.1001H24.0996H24.0992H24.0987H24.0982H24.0977C23.3123 38.9539 22.6696 38.3145 22.6648 37.531V21.5629H23.8824H23.8886C24.075 21.571 24.2021 21.4278 24.2021 21.2556C24.2021 21.127 24.1233 21.017 24.0114 20.971L18.1399 16.9185C18.0347 16.8459 17.8957 16.8459 17.7904 16.9185L11.8729 21.0028C11.7619 21.0791 11.714 21.2191 11.7539 21.3476C11.7942 21.4761 11.9128 21.5634 12.0475 21.5634H13.2712L13.2721 37.5353C13.2783 38.6395 14.1652 39.5406 15.2936 39.5691C15.3064 39.5705 15.3188 39.5715 15.3316 39.5715H24.0973H24.1025C24.1831 39.57 24.2562 39.5378 24.3102 39.4861C24.3102 39.4861 24.3102 39.4861 24.3107 39.4856C24.3116 39.4847 24.3126 39.4837 24.3131 39.4832C24.3135 39.4828 24.314 39.4828 24.3145 39.4818L24.315 39.4813L24.3154 39.4809L24.3159 39.4804L24.3164 39.4799L24.3169 39.4795L24.3173 39.479C24.3183 39.4785 24.3178 39.4785 24.3183 39.478C24.3183 39.478 24.3183 39.478 24.3188 39.4776L24.3192 39.4771C24.3192 39.4771 24.3192 39.4771 24.3197 39.4766C24.3728 39.4216 24.406 39.3471 24.4065 39.2646V39.2636V39.2632V39.2627V39.2622V39.2617V39.2613V39.2608V39.2598C24.4041 39.1384 24.3306 39.0322 24.2249 38.9843Z" fill="#DC8327"/>
<path d="M36.9064 38.9843C36.9064 38.9843 36.906 38.9838 36.9055 38.9838C36.905 38.9838 36.9045 38.9833 36.9041 38.9833H36.9036L36.9031 38.9828L36.9026 38.9824H36.9022L36.9017 38.9819L36.9012 38.9814C36.9017 38.9809 36.9007 38.981 36.9003 38.981L36.8998 38.9805H36.8993C36.8988 38.9805 36.8988 38.98 36.8988 38.98C36.8979 38.9805 36.8979 38.9795 36.8979 38.9795L36.8969 38.9791L36.8965 38.9786H36.896L36.8955 38.9781L36.895 38.9776C36.8946 38.9772 36.8941 38.9772 36.8941 38.9772C36.8936 38.9776 36.8936 38.9767 36.8927 38.9767L36.8922 38.9762L36.8917 38.9757C36.8917 38.9757 36.8912 38.9757 36.8908 38.9753C36.8903 38.9748 36.8894 38.9748 36.8889 38.9748C36.8884 38.9748 36.8875 38.9743 36.887 38.9743C36.8865 38.9738 36.8865 38.9738 36.886 38.9738C36.8856 38.9738 36.8856 38.9738 36.8851 38.9734C36.8851 38.9734 36.8846 38.9734 36.8841 38.9729C36.8827 38.9724 36.8837 38.9724 36.8832 38.9724C36.8818 38.9724 36.8827 38.9724 36.8822 38.9719C36.8822 38.9719 36.8818 38.9715 36.8813 38.9715L36.8808 38.971H36.8803C36.8524 38.961 36.8225 38.9549 36.7912 38.9534H36.7902H36.7897H36.7888H36.7883H36.7879H36.7874L36.7869 38.953H36.786H36.785H36.7845H36.7841H36.7836H36.7826H36.7817H36.7812H36.7807H36.7803H36.7798H36.7793H36.7788H36.7784H36.7779H36.7774C35.9924 38.953 35.3497 38.3136 35.345 37.53V25.1387H36.5682C36.5725 25.1383 36.5758 25.1383 36.5806 25.1387C36.7504 25.1387 36.8879 25.0012 36.8879 24.8314C36.8879 24.7028 36.8092 24.5928 36.6973 24.5468L30.8253 20.4943C30.72 20.4217 30.5811 20.4217 30.4758 20.4943L24.5607 24.5781C24.4497 24.6545 24.4018 24.7944 24.4416 24.9229C24.4819 25.0515 24.6005 25.1387 24.7352 25.1387H25.9532L25.9542 37.5348C25.9594 38.6394 26.8478 39.5411 27.9766 39.5691C27.989 39.5705 28.0013 39.571 28.0136 39.571H36.7793H36.7845C36.8652 39.5696 36.9382 39.5373 36.9923 39.4856C36.9923 39.4856 36.9923 39.4856 36.9928 39.4851C36.9937 39.4842 36.9956 39.4832 36.9951 39.4828C36.9956 39.4823 36.9961 39.4823 36.9965 39.4813L36.997 39.4809L36.9975 39.4804L36.998 39.4799C36.998 39.4799 36.9984 39.4799 36.9984 39.4794L36.9989 39.479C36.9994 39.479 36.9994 39.4785 36.9994 39.4785C37.0008 39.478 37.0003 39.478 37.0003 39.4775C37.0003 39.4775 37.0003 39.4776 37.0008 39.4771C37.0008 39.4771 37.0008 39.4771 37.0013 39.4766C37.0013 39.4766 37.0013 39.4766 37.0018 39.4761C37.0549 39.4211 37.0881 39.3466 37.0886 39.2641V39.2632V39.2627V39.2622V39.2617V39.2613V39.2608V39.2603V39.2594C37.0857 39.1384 37.0122 39.0322 36.9064 38.9843Z" fill="#F4B21B"/>
<path d="M49.6212 38.9843L49.6202 38.9838C49.6198 38.9838 49.6193 38.9833 49.6188 38.9833H49.6183L49.6179 38.9829L49.6174 38.9824C49.6169 38.9824 49.6169 38.9824 49.6169 38.9819H49.6164L49.616 38.9814L49.6155 38.981C49.6155 38.981 49.615 38.981 49.615 38.9805H49.6145L49.6141 38.98C49.6136 38.9805 49.6136 38.9795 49.6131 38.9795C49.6136 38.9791 49.6126 38.9791 49.6122 38.9791L49.6117 38.9786H49.6112L49.6107 38.9781L49.6103 38.9776C49.6088 38.9772 49.6093 38.9772 49.6093 38.9772C49.6088 38.9776 49.6088 38.9767 49.6079 38.9767L49.6074 38.9762C49.6079 38.9757 49.6069 38.9757 49.6065 38.9757C49.6065 38.9757 49.606 38.9757 49.606 38.9753C49.6055 38.9748 49.6046 38.9748 49.6041 38.9748C49.6036 38.9748 49.6027 38.9743 49.6022 38.9743L49.6013 38.9738C49.6013 38.9738 49.6008 38.9738 49.6003 38.9734L49.5994 38.9729C49.5979 38.9724 49.5979 38.9724 49.5984 38.9724C49.597 38.9724 49.597 38.9724 49.5975 38.972C49.597 38.972 49.597 38.9715 49.597 38.9715C49.5965 38.9715 49.596 38.971 49.596 38.971H49.5956C49.5676 38.961 49.5377 38.9549 49.5064 38.9535H49.5059H49.505H49.5035H49.5031H49.5026H49.5021C49.5016 38.953 49.5016 38.953 49.5012 38.953H49.5002H49.4993H49.4988H49.4983H49.4979H49.4969H49.496C49.496 38.953 49.496 38.953 49.4955 38.953H49.495H49.4945H49.4941H49.4936H49.4931H49.4926H49.4945H49.4941C48.7091 38.953 48.0664 38.3136 48.0616 37.5301V28.7131H49.282H49.2882C49.4613 28.7089 49.6017 28.578 49.6017 28.4058C49.6017 28.2772 49.523 28.1672 49.4111 28.1212L43.5391 24.0687C43.4343 23.9961 43.2949 23.9961 43.1896 24.0687L37.2721 28.1525C37.1611 28.2289 37.1132 28.3688 37.153 28.4973C37.1933 28.6259 37.3119 28.7131 37.4466 28.7131H38.667L38.668 37.5348C38.6741 38.6395 39.562 39.5416 40.6904 39.5691C40.7028 39.5705 40.7151 39.571 40.7274 39.571H49.4931H49.4983C49.579 39.5696 49.652 39.5373 49.7061 39.4856L49.7065 39.4852C49.7075 39.4842 49.7089 39.4833 49.7089 39.4828C49.7094 39.4823 49.7099 39.4823 49.7103 39.4814L49.7108 39.4809L49.7113 39.4804L49.7118 39.4799L49.7122 39.4795L49.7127 39.479L49.7132 39.4785C49.7146 39.478 49.7137 39.478 49.7141 39.4776C49.7141 39.4776 49.7141 39.4776 49.7146 39.4771L49.7151 39.4766C49.7151 39.4766 49.7151 39.4766 49.7156 39.4761C49.7687 39.4211 49.8019 39.3467 49.8024 39.2641V39.2632V39.2627V39.2622V39.2618V39.2613V39.2608V39.2603V39.2594C49.8005 39.1384 49.7265 39.0322 49.6212 38.9843Z" fill="#F2D864"/>
</svg>
