<svg width="54" height="54" viewBox="0 0 54 54" fill="none" xmlns="http://www.w3.org/2000/svg">
<path d="M15 19.5C15 24.6717 17.0545 29.6316 20.7114 33.2886C24.3684 36.9455 29.3283 39 34.5 39C39.6717 39 44.6316 36.9455 48.2886 33.2886C51.9455 29.6316 54 24.6717 54 19.5C54 14.3283 51.9455 9.36838 48.2886 5.71142C44.6316 2.05446 39.6717 0 34.5 0C29.3283 0 24.3684 2.05446 20.7114 5.71142C17.0545 9.36838 15 14.3283 15 19.5Z" fill="#D87B00"/>
<path d="M0 34.5C0 39.6717 2.05446 44.6316 5.71142 48.2886C9.36838 51.9455 14.3283 54 19.5 54C24.6717 54 29.6316 51.9455 33.2886 48.2886C36.9455 44.6316 39 39.6717 39 34.5C39 29.3283 36.9455 24.3684 33.2886 20.7114C29.6316 17.0545 24.6717 15 19.5 15C14.3283 15 9.36838 17.0545 5.71142 20.7114C2.05446 24.3684 0 29.3283 0 34.5Z" fill="#FFB300"/>
<path d="M13.5 33.75C13.5 34.7446 13.8951 35.6984 14.5983 36.4016C15.3016 37.1049 16.2554 37.5 17.25 37.5C18.2446 37.5 19.1984 37.1049 19.9016 36.4016C20.6049 35.6984 21 34.7446 21 33.75C21 32.7554 20.6049 31.8016 19.9016 31.0983C19.1984 30.3951 18.2446 30 17.25 30C16.2554 30 15.3016 30.3951 14.5983 31.0983C13.8951 31.8016 13.5 32.7554 13.5 33.75Z" fill="#683529"/>
<path d="M18 23.25C18 23.8467 18.2371 24.419 18.659 24.841C19.081 25.2629 19.6533 25.5 20.25 25.5C20.8467 25.5 21.419 25.2629 21.841 24.841C22.2629 24.419 22.5 23.8467 22.5 23.25C22.5 22.6533 22.2629 22.081 21.841 21.659C21.419 21.2371 20.8467 21 20.25 21C19.6533 21 19.081 21.2371 18.659 21.659C18.2371 22.081 18 22.6533 18 23.25Z" fill="#683529"/>
<path d="M22.5 42C22.4999 42.394 22.5775 42.7841 22.7282 43.1482C22.879 43.5122 23.0999 43.843 23.3785 44.1216C23.6571 44.4002 23.9878 44.6212 24.3518 44.772C24.7159 44.9228 25.106 45.0004 25.5 45.0004C25.894 45.0004 26.2842 44.9228 26.6482 44.772C27.0122 44.6212 27.3429 44.4002 27.6215 44.1216C27.9001 43.843 28.121 43.5122 28.2718 43.1482C28.4225 42.7841 28.5001 42.394 28.5 42C28.5001 41.606 28.4225 41.2158 28.2718 40.8518C28.121 40.4877 27.9001 40.157 27.6215 39.8784C27.3429 39.5997 27.0122 39.3787 26.6482 39.2279C26.2842 39.0771 25.894 38.9995 25.5 38.9995C25.106 38.9995 24.7159 39.0771 24.3518 39.2279C23.9878 39.3787 23.6571 39.5997 23.3785 39.8784C23.0999 40.157 22.879 40.4877 22.7282 40.8518C22.5775 41.2158 22.4999 41.606 22.5 42Z" fill="#683529"/>
<path d="M6 36.75C6 37.3467 6.23705 37.919 6.65901 38.341C7.08097 38.7629 7.65326 39 8.25 39C8.84674 39 9.41903 38.7629 9.84099 38.341C10.2629 37.919 10.5 37.3467 10.5 36.75C10.5 36.1533 10.2629 35.581 9.84099 35.159C9.41903 34.7371 8.84674 34.5 8.25 34.5C7.65326 34.5 7.08097 34.7371 6.65901 35.159C6.23705 35.581 6 36.1533 6 36.75Z" fill="#683529"/>
<path d="M27.001 32.2485C27.001 32.8453 27.238 33.4176 27.66 33.8395C28.0819 34.2615 28.6542 34.4985 29.251 34.4985C29.8477 34.4985 30.42 34.2615 30.842 33.8395C31.2639 33.4176 31.501 32.8453 31.501 32.2485C31.501 31.6518 31.2639 31.0795 30.842 30.6575C30.42 30.2356 29.8477 29.9985 29.251 29.9985C28.6542 29.9985 28.0819 30.2356 27.66 30.6575C27.238 31.0795 27.001 31.6518 27.001 32.2485Z" fill="#683529"/>
<path d="M13.5 45C13.5 45.197 13.5388 45.392 13.6142 45.574C13.6896 45.756 13.8001 45.9214 13.9393 46.0607C14.0786 46.1999 14.244 46.3104 14.426 46.3858C14.608 46.4612 14.803 46.5 15 46.5C15.197 46.5 15.392 46.4612 15.574 46.3858C15.756 46.3104 15.9214 46.1999 16.0607 46.0607C16.1999 45.9214 16.3104 45.756 16.3858 45.574C16.4612 45.392 16.5 45.197 16.5 45C16.5 44.803 16.4612 44.608 16.3858 44.426C16.3104 44.244 16.1999 44.0786 16.0607 43.9393C15.9214 43.8 15.756 43.6896 15.574 43.6142C15.392 43.5388 15.197 43.5 15 43.5C14.803 43.5 14.608 43.5388 14.426 43.6142C14.244 43.6896 14.0786 43.8 13.9393 43.9393C13.8001 44.0786 13.6896 44.244 13.6142 44.426C13.5388 44.608 13.5 44.803 13.5 45Z" fill="#683529"/>
<path d="M27 8.99997C26.9999 9.39398 27.0775 9.78413 27.2282 10.1482C27.379 10.5122 27.5999 10.843 27.8785 11.1216C28.1571 11.4002 28.4878 11.6212 28.8518 11.772C29.2159 11.9228 29.606 12.0004 30 12.0004C30.394 12.0004 30.7841 11.9228 31.1482 11.772C31.5122 11.6212 31.8429 11.4002 32.1215 11.1216C32.4001 10.843 32.621 10.5122 32.7718 10.1482C32.9225 9.78413 33.0001 9.39398 33 8.99997C33.0001 8.60597 32.9225 8.21581 32.7718 7.85178C32.621 7.48775 32.4001 7.15698 32.1215 6.87835C31.8429 6.59973 31.5122 6.37871 31.1482 6.22792C30.7841 6.07712 30.394 5.99951 30 5.99951C29.606 5.99951 29.2159 6.07712 28.8518 6.22792C28.4878 6.37871 28.1571 6.59973 27.8785 6.87835C27.5999 7.15698 27.379 7.48775 27.2282 7.85178C27.0775 8.21581 26.9999 8.60597 27 8.99997Z" fill="#4C2114"/>
<path d="M35.999 15.7485C35.999 16.3453 36.2361 16.9176 36.658 17.3395C37.08 17.7615 37.6523 17.9985 38.249 17.9985C38.8458 17.9985 39.4181 17.7615 39.84 17.3395C40.262 16.9176 40.499 16.3453 40.499 15.7485C40.499 15.1518 40.262 14.5795 39.84 14.1575C39.4181 13.7356 38.8458 13.4985 38.249 13.4985C37.6523 13.4985 37.08 13.7356 36.658 14.1575C36.2361 14.5795 35.999 15.1518 35.999 15.7485Z" fill="#4C2114"/>
<path d="M37.499 6.75C37.499 7.34674 37.7361 7.91903 38.158 8.34099C38.58 8.76295 39.1523 9 39.749 9C40.3458 9 40.9181 8.76295 41.34 8.34099C41.762 7.91903 41.999 7.34674 41.999 6.75C41.999 6.15326 41.762 5.58097 41.34 5.15901C40.9181 4.73705 40.3458 4.5 39.749 4.5C39.1523 4.5 38.58 4.73705 38.158 5.15901C37.7361 5.58097 37.499 6.15326 37.499 6.75Z" fill="#4C2114"/>
<path d="M43.5 22.5C43.5 22.8978 43.658 23.2794 43.9393 23.5607C44.2206 23.842 44.6022 24 45 24C45.3978 24 45.7794 23.842 46.0607 23.5607C46.342 23.2794 46.5 22.8978 46.5 22.5C46.5 22.1022 46.342 21.7206 46.0607 21.4393C45.7794 21.158 45.3978 21 45 21C44.6022 21 44.2206 21.158 43.9393 21.4393C43.658 21.7206 43.5 22.1022 43.5 22.5Z" fill="#4C2114"/>
</svg>
