<svg width="36" height="54" viewBox="0 0 36 54" fill="none" xmlns="http://www.w3.org/2000/svg">
<path fill-rule="evenodd" clip-rule="evenodd" d="M18 27C18 22.0295 22.0295 18 27 18C31.9705 18 36 22.0295 36 27C36 31.9705 31.9705 36 27 36C22.0295 36 18 31.9705 18 27Z" fill="#1ABCFE"/>
<path fill-rule="evenodd" clip-rule="evenodd" d="M0 45C0 40.0295 4.02943 36 9 36H18V45C18 49.9705 13.9705 54 9 54C4.02943 54 0 49.9705 0 45Z" fill="#0ACF83"/>
<path fill-rule="evenodd" clip-rule="evenodd" d="M18 0V18H27C31.9705 18 36 13.9705 36 9C36 4.02943 31.9705 0 27 0H18Z" fill="#FF7262"/>
<path fill-rule="evenodd" clip-rule="evenodd" d="M0 9C0 13.9705 4.02943 18 9 18H18V0H9C4.02943 0 0 4.02943 0 9Z" fill="#F24E1E"/>
<path fill-rule="evenodd" clip-rule="evenodd" d="M0 27C0 31.9705 4.02943 36 9 36H18V18H9C4.02943 18 0 22.0295 0 27Z" fill="#A259FF"/>
</svg>
