<svg width="53" height="53" viewBox="0 0 53 53" fill="none" xmlns="http://www.w3.org/2000/svg">
<path d="M47.0612 0H5.93884C2.68549 0 0 2.68549 0 5.93884V47.0612C0 50.3145 2.68549 53 5.93884 53H47.0612C50.3145 53 53 50.3145 53 47.0612V5.93884C53 2.68549 50.3145 0 47.0612 0ZM41.6902 33.6337C41.6902 34.1306 41.2643 34.3435 40.7674 34.5565C38.7917 35.4083 36.6741 36.1772 34.4027 36.1772C31.2203 36.1772 29.7415 34.2016 25.9203 34.2016C23.1638 34.2016 20.2654 35.1953 17.9348 36.2482C17.7929 36.3192 17.6509 36.3192 17.5089 36.3902V41.7612C17.5089 41.9741 17.5089 42.1871 17.4379 42.329V42.471C17.154 43.4647 16.2312 44.1627 15.1783 44.1627C13.8415 44.1627 12.7768 43.098 12.7768 41.7612V15.9C11.854 15.1902 11.227 14.0663 11.227 12.7886C11.227 10.6 12.9897 8.82545 15.1902 8.82545C17.3788 8.82545 19.1533 10.5882 19.1533 12.7886C19.1533 14.0663 18.5855 15.1902 17.6036 15.9V18.0886C17.8165 18.0176 18.0295 17.9467 18.2424 17.8047C20.431 16.8819 23.0455 16.1129 25.5181 16.1129C28.2036 16.1129 30.3212 16.8228 32.7228 17.7337C33.2196 17.9467 33.7165 18.0176 34.2725 18.0176C36.958 18.0176 39.9275 16.1129 40.6373 16.1129C41.2051 16.1129 41.702 16.5388 41.702 17.0357V33.6337H41.6902Z" fill="#339AF0"/>
</svg>
