<svg width="53" height="53" viewBox="0 0 53 53" fill="none" xmlns="http://www.w3.org/2000/svg">
<path d="M26.25 52.5C40.7475 52.5 52.5 40.7475 52.5 26.25C52.5 11.7525 40.7475 0 26.25 0C11.7525 0 0 11.7525 0 26.25C0 40.7475 11.7525 52.5 26.25 52.5Z" fill="#0769AD"/>
<path d="M38.7329 21.4146C41.0898 21.4146 43.2477 20.6286 44.9161 19.3249C43.1839 21.6071 40.3143 23.0993 37.0671 23.0993C31.7774 23.0993 27.4893 19.1394 27.4893 14.2548C27.4893 11.5464 28.8076 9.12238 30.8839 7.5C29.7944 8.93565 29.155 10.6839 29.155 12.5701C29.155 17.4548 33.4431 21.4146 38.7329 21.4146Z" fill="#78CFF5"/>
<path d="M44.8245 27.4849C42.2835 29.478 38.994 30.6802 35.4009 30.6802C27.3513 30.6802 20.8258 24.6463 20.8258 17.2029C20.8258 14.316 21.8075 11.6411 23.4789 9.448C20.3274 11.9201 18.3271 15.609 18.3271 19.7299C18.3271 27.1732 24.8527 33.2074 32.9023 33.2074C37.83 33.2074 42.1863 30.9463 44.8245 27.4849Z" fill="#78CFF5"/>
<path d="M45 35.194C41.3792 38.6493 36.3632 40.7884 30.8203 40.7884C19.7807 40.7884 10.8315 32.3031 10.8315 21.8359C10.8315 18.5191 11.7301 15.4013 13.309 12.6895C9.71854 16.1157 7.5 20.836 7.5 26.0476C7.5 36.5148 16.4492 45.0001 27.4888 45.0001C35.0301 45.0001 41.5961 41.0403 45 35.194Z" fill="#78CFF5"/>
</svg>
