<svg width="54" height="54" viewBox="0 0 54 54" fill="none" xmlns="http://www.w3.org/2000/svg">
<path d="M17.3402 50.269C22.0803 52.7567 24.4504 54.0003 27 54.0003V27.0004L1.72265 13.6965C1.68542 13.7564 1.64889 13.8167 1.61298 13.8777C-1.60932e-07 16.6169 0 20.0254 0 26.8424V27.1583C0 33.9753 -1.60932e-07 37.384 1.61298 40.1232C3.22593 42.8623 6.1307 44.3867 11.9402 47.4353L17.3402 50.269Z" fill="#53639A"/>
<path opacity="0.7" d="M42.0598 6.5651L36.6598 3.73132C31.9197 1.24378 29.5496 0 27 0C24.4504 0 22.0804 1.24378 17.3402 3.73132L11.9402 6.5651C6.26003 9.5459 3.35672 11.0695 1.72266 13.6961L27 27L52.2774 13.6961C50.6431 11.0695 47.7398 9.5459 42.0598 6.5651Z" fill="#53639A"/>
<path opacity="0.5" d="M52.387 13.8777C52.3511 13.8167 52.3146 13.7564 52.2774 13.6965L27 27.0004V54.0003C29.5496 54.0003 31.9197 52.7567 36.6598 50.269L42.0598 47.4353C47.8694 44.3867 50.774 42.8623 52.387 40.1232C54 37.384 54 33.9753 54 27.1583V26.8424C54 20.0254 54 16.6169 52.387 13.8777Z" fill="#53639A"/>
<path d="M11.6734 6.70631C11.762 6.65976 11.8514 6.61289 11.9414 6.56564L15.974 4.44946L40.546 17.9641L51.41 12.5321C51.7818 12.9531 52.105 13.3967 52.3882 13.8778C52.7921 14.5637 53.0948 15.2915 53.3218 16.1043L42.5262 21.5021V29.7005C42.5262 30.8189 41.6195 31.7255 40.5012 31.7255C39.3828 31.7255 38.4762 30.8189 38.4762 29.7005V23.527L29.0262 28.252V53.7413C28.3326 53.9141 27.6732 54.0005 27.0012 54.0005C26.3294 54.0005 25.6698 53.9141 24.9762 53.7413V28.252L0.680664 16.1043C0.907626 15.2915 1.21035 14.5637 1.61421 13.8778C1.89753 13.3967 2.22066 12.9531 2.59242 12.5321L27.0012 24.7366L36.1439 20.1651L11.6734 6.70631Z" fill="#53639A"/>
</svg>
