<svg width="24" height="53" viewBox="0 0 24 53" fill="none" xmlns="http://www.w3.org/2000/svg">
<path d="M12.9655 52.5L11.5574 52.0331C11.5574 52.0331 11.7449 44.9081 9.16678 44.4075C7.47928 42.4425 9.41616 -39.4819 15.5849 44.1281C14.4145 44.7218 13.5189 45.745 13.0855 46.9837C12.8532 48.8132 12.813 50.6621 12.9655 52.5Z" fill="url(#paint0_linear_422_349)"/>
<path d="M13.7265 45.617C17.4757 42.7947 20.3469 38.9663 22.0065 34.5767C23.666 30.1872 24.0457 25.4169 23.1015 20.8201C20.3452 8.66071 13.8184 4.66321 13.1152 3.13696C12.5086 2.18658 11.9908 1.18234 11.5684 0.136963L12.0877 34.0163C12.0877 34.0163 11.0115 44.3701 13.7265 45.617Z" fill="url(#paint1_linear_422_349)"/>
<path d="M10.8408 46.0669C10.8408 46.0669 -0.636031 38.25 0.0277191 24.4219C0.0896364 20.2531 1.04548 16.1461 2.83068 12.3784C4.61588 8.61069 7.18887 5.26996 10.3758 2.58188C10.7483 2.26546 11.0442 1.86877 11.2413 1.42159C11.4384 0.974411 11.5316 0.488378 11.514 0C12.2283 1.5375 12.1121 22.9556 12.1871 25.4606C12.4777 35.205 11.6452 44.2275 10.8408 46.0669Z" fill="url(#paint2_linear_422_349)"/>
<defs>
<linearGradient id="paint0_linear_422_349" x1="3.49987" y1="26.723" x2="19.6842" y2="32.2151" gradientUnits="userSpaceOnUse">
<stop offset="0.231" stop-color="#999875"/>
<stop offset="0.563" stop-color="#9B9977"/>
<stop offset="0.683" stop-color="#A09F7E"/>
<stop offset="0.768" stop-color="#A9A889"/>
<stop offset="0.837" stop-color="#B7B69A"/>
<stop offset="0.896" stop-color="#C9C7B0"/>
<stop offset="0.948" stop-color="#DEDDCB"/>
<stop offset="0.994" stop-color="#F8F6EB"/>
<stop offset="1" stop-color="#FBF9EF"/>
</linearGradient>
<linearGradient id="paint1_linear_422_349" x1="9.43451" y1="-0.105126" x2="16.5896" y2="44.5741" gradientUnits="userSpaceOnUse">
<stop stop-color="#48A547"/>
<stop offset="1" stop-color="#3F9143"/>
</linearGradient>
<linearGradient id="paint2_linear_422_349" x1="-0.95952" y1="25.7907" x2="18.2416" y2="19.3602" gradientUnits="userSpaceOnUse">
<stop stop-color="#41A247"/>
<stop offset="0.352" stop-color="#4BA74B"/>
<stop offset="0.956" stop-color="#67B554"/>
<stop offset="1" stop-color="#69B655"/>
</linearGradient>
</defs>
</svg>
