<svg width="61" height="60" viewBox="0 0 61 60" fill="none" xmlns="http://www.w3.org/2000/svg">
<path d="M45.3128 56.2655C45.0897 56.3837 45.1084 56.4212 45.3222 56.3124C45.3916 56.2843 45.4497 56.2449 45.5003 56.198C45.5003 56.1587 45.5003 56.1587 45.3128 56.2655ZM45.7628 56.0218C45.6559 56.1099 45.6559 56.1099 45.7834 56.0518C45.8509 56.0124 45.9109 55.9749 45.9109 55.9637C45.9109 55.913 45.8809 55.9243 45.7628 56.0218ZM46.0553 55.8455C45.9484 55.9337 45.9484 55.9337 46.0759 55.8755C46.1453 55.8362 46.2034 55.7949 46.2034 55.7855C46.2034 55.7387 46.1734 55.748 46.0553 55.8455ZM46.3516 55.6712C46.2447 55.7593 46.2447 55.7593 46.3684 55.6993C46.4378 55.6618 46.4959 55.6224 46.4959 55.6112C46.4959 55.5643 46.4659 55.5737 46.3516 55.6712ZM46.7509 55.4068C46.5466 55.5437 46.4753 55.6318 46.6628 55.5343C46.7884 55.4574 47.0022 55.2887 46.9647 55.2887C46.8841 55.3187 46.8166 55.3693 46.7491 55.4068H46.7509ZM28.8203 0.0267818C28.6834 0.0361568 28.2728 0.0736568 27.9128 0.103657C19.3853 0.876157 11.4072 5.46616 6.35032 12.5368C3.5547 16.4124 1.7397 20.9143 1.05532 25.6412C0.813447 27.2912 0.783447 27.7787 0.783447 30.0155C0.783447 32.2505 0.813447 32.7305 1.05532 34.3805C2.68845 45.6512 10.7059 55.1124 21.5734 58.6187C23.5291 59.243 25.5784 59.6743 27.9128 59.9387C28.8203 60.0362 32.7447 60.0362 33.6522 59.9387C37.6872 59.4887 41.0941 58.493 44.4653 56.7737C44.9828 56.5112 45.0803 56.4418 45.0109 56.3837C43.3609 54.2068 41.7409 52.028 40.1191 49.8305L35.3247 43.3562L29.3191 34.4593C27.3166 31.4818 25.3066 28.5118 23.2647 25.5643C23.2441 25.5643 23.2178 29.5187 23.2066 34.3412C23.1859 42.788 23.1859 43.1312 23.0791 43.3262C22.9722 43.5605 22.7959 43.7555 22.5616 43.8643C22.3759 43.9524 22.2091 43.9712 21.3222 43.9712H20.3078L20.0434 43.8062C19.8784 43.6993 19.7416 43.5512 19.6534 43.3768L19.5259 43.1124L19.5353 31.3543L19.5559 19.5962L19.7416 19.3618C19.8597 19.2174 20.0059 19.0993 20.1709 19.0112C20.4166 18.893 20.5141 18.8743 21.5284 18.8743C22.7191 18.8743 22.9159 18.9212 23.2291 19.2643C25.6591 22.8868 28.0816 26.5187 30.4647 30.1618C34.3628 36.0718 39.6841 44.1362 42.2997 48.0924L47.0566 55.2905L47.2909 55.1349C49.5766 53.6105 51.6559 51.7955 53.4503 49.7255C57.2303 45.398 59.6828 40.0749 60.5134 34.3937C60.7553 32.7437 60.7853 32.2543 60.7853 30.0193C60.7853 27.7824 60.7553 27.3043 60.5134 25.6543C58.8803 14.3837 50.8628 4.92241 39.9953 1.41428C37.9628 0.771157 35.8722 0.332407 33.7553 0.107407C33.1872 0.0492818 29.3097 -0.0200932 28.8222 0.0305318L28.8203 0.0267818ZM41.0959 18.1712C41.3791 18.3062 41.5928 18.5612 41.6903 18.8537C41.7409 19.0112 41.7503 22.2718 41.7409 29.6162L41.7203 40.1612L39.8659 37.3112L38.0003 34.4593V26.8037C38.0003 21.8405 38.0209 19.058 38.0472 18.9212C38.1353 18.608 38.3491 18.3455 38.6341 18.1805C38.8666 18.0624 38.9566 18.053 39.8847 18.053C40.7528 18.053 40.9009 18.0624 41.0959 18.1712Z" fill="black"/>
</svg>
