<svg width="47" height="54" viewBox="0 0 47 54" fill="none" xmlns="http://www.w3.org/2000/svg">
<path d="M23.5 53.8886C22.7702 53.8886 22.089 53.694 21.4565 53.3534L14.9855 49.5097C14.0124 48.9745 14.499 48.7799 14.7909 48.6826C16.1046 48.2447 16.3478 48.1474 17.7101 47.3689C17.8561 47.2716 18.0507 47.3203 18.1967 47.4176L23.1594 50.3855C23.354 50.4828 23.5973 50.4828 23.7433 50.3855L43.1563 39.1464C43.3509 39.0491 43.4482 38.8544 43.4482 38.6112V16.1816C43.4482 15.9383 43.3509 15.7437 43.1563 15.6464L23.7433 4.4559C23.5487 4.35859 23.3054 4.35859 23.1594 4.4559L3.74638 15.6464C3.55176 15.7437 3.45445 15.987 3.45445 16.1816V38.6112C3.45445 38.8058 3.55176 39.0491 3.74638 39.1464L9.04969 42.2116C11.9203 43.6712 13.7205 41.9683 13.7205 40.2654V18.1277C13.7205 17.8358 13.9638 17.5439 14.3043 17.5439H16.7857C17.0776 17.5439 17.3696 17.7872 17.3696 18.1277V40.2654C17.3696 44.1091 15.2774 46.3472 11.6284 46.3472C10.5093 46.3472 9.63354 46.3472 7.15217 45.1308L2.04348 42.2116C0.778468 41.4818 0 40.1195 0 38.6598V16.2302C0 14.7706 0.778468 13.4083 2.04348 12.6785L21.4565 1.43934C22.6729 0.758177 24.3271 0.758177 25.5435 1.43934L44.9565 12.6785C46.2215 13.4083 47 14.7706 47 16.2302V38.6598C47 40.1195 46.2215 41.4818 44.9565 42.2116L25.5435 53.4507C24.911 53.7426 24.1812 53.8886 23.5 53.8886ZM29.4845 38.4652C20.97 38.4652 19.2184 34.5729 19.2184 31.2644C19.2184 30.9725 19.4617 30.6805 19.8023 30.6805H22.3323C22.6242 30.6805 22.8675 30.8752 22.8675 31.1671C23.2567 33.7458 24.3758 35.0108 29.5331 35.0108C33.6201 35.0108 35.3716 34.0863 35.3716 31.8969C35.3716 30.6319 34.8851 29.7074 28.5114 29.0749C23.2081 28.5397 19.8996 27.372 19.8996 23.1391C19.8996 19.1981 23.2081 16.8627 28.7547 16.8627C34.9824 16.8627 38.0476 19.0035 38.4369 23.6743C38.4369 23.8203 38.3882 23.9663 38.2909 24.1122C38.1936 24.2095 38.0476 24.3068 37.9017 24.3068H35.3716C35.1284 24.3068 34.8851 24.1122 34.8364 23.8689C34.2526 21.193 32.7443 20.3172 28.7547 20.3172C24.2785 20.3172 23.7433 21.8741 23.7433 23.0418C23.7433 24.4528 24.3758 24.8907 30.4089 25.6691C36.3934 26.4476 39.2153 27.5667 39.2153 31.7509C39.1667 36.0325 35.6636 38.4652 29.4845 38.4652Z" fill="#539E43"/>
</svg>
