<svg width="54" height="54" viewBox="0 0 54 54" fill="none" xmlns="http://www.w3.org/2000/svg">
<path d="M53.7792 30.4284C55.6688 15.635 45.2217 2.11049 30.4554 0.220827C15.689 -1.66883 2.11049 8.77828 0.220827 23.5446C-1.66883 38.311 8.77828 51.8625 23.5446 53.7792C38.338 55.6688 51.8625 45.2217 53.7792 30.4284Z" fill="#FF6C37"/>
<path d="M36.744 17.3358L25.3521 28.7277L22.1396 25.5153C33.3426 14.3123 34.4494 15.2841 36.744 17.3358Z" fill="white"/>
<path d="M25.3521 28.9977C25.2712 28.9977 25.2172 28.9707 25.1632 28.9167L21.9238 25.7043C21.8158 25.5963 21.8158 25.4344 21.9238 25.3264C33.3157 13.9344 34.5035 15.0142 36.9061 17.1738C36.96 17.2278 36.987 17.2818 36.987 17.3628C36.987 17.4438 36.96 17.4978 36.9061 17.5518L25.5141 28.9167C25.4871 28.9707 25.4061 28.9977 25.3521 28.9977ZM22.5177 25.5153L25.3521 28.3498L36.3392 17.3628C34.3415 15.5811 32.9918 15.0412 22.5177 25.5153Z" fill="#FF6C37"/>
<path d="M28.6181 31.9942L25.5137 28.8897L36.9056 17.4978C39.9561 20.5752 35.3939 25.5693 28.6181 31.9942Z" fill="white"/>
<path d="M28.6189 32.2641C28.5379 32.2641 28.4839 32.2371 28.4299 32.1831L25.3255 29.0786C25.2715 29.0247 25.2715 28.9707 25.2715 28.8897C25.2715 28.8087 25.2985 28.7547 25.3525 28.7007L36.7444 17.3088C36.8524 17.2008 37.0144 17.2008 37.1223 17.3088C37.8242 17.9567 38.2022 18.8745 38.1752 19.8193C38.1212 22.8158 34.7198 26.6221 28.8348 32.1831C28.7539 32.2371 28.6729 32.2641 28.6189 32.2641ZM25.8924 28.8897C27.6201 30.6444 28.3489 31.3462 28.6189 31.6162C33.1541 27.297 37.5543 22.8698 37.5813 19.8193C37.6083 19.1174 37.3383 18.4156 36.8794 17.8757L25.8924 28.8897Z" fill="#FF6C37"/>
<path d="M22.1936 25.5961L24.4882 27.8907C24.5421 27.9447 24.5421 27.9986 24.4882 28.0526C24.4612 28.0796 24.4612 28.0796 24.4342 28.0796L19.683 29.1054C19.4401 29.1324 19.2241 28.9705 19.1701 28.7275C19.1431 28.5925 19.1971 28.4576 19.2781 28.3766L22.0316 25.6231C22.0856 25.5691 22.1666 25.5421 22.1936 25.5961Z" fill="white"/>
<path d="M19.6023 29.3756C19.1973 29.3756 18.9004 29.0516 18.9004 28.6467C18.9004 28.4577 18.9814 28.2688 19.1164 28.1338L21.8699 25.3803C22.0318 25.2453 22.2478 25.2453 22.4098 25.3803L24.7043 27.6749C24.8663 27.8098 24.8663 28.0528 24.7043 28.2148C24.6504 28.2688 24.5964 28.2958 24.5154 28.3228L19.7642 29.3486C19.7102 29.3486 19.6563 29.3756 19.6023 29.3756ZM22.1128 25.8932L19.4673 28.5387C19.4133 28.5927 19.3863 28.6737 19.4403 28.7547C19.4673 28.8357 19.5483 28.8627 19.6293 28.8357L24.0835 27.8638L22.1128 25.8932Z" fill="#FF6C37"/>
<path d="M42.7643 11.0189C41.0366 9.34524 38.2561 9.39923 36.5824 11.1539C34.9087 12.9086 34.9627 15.6621 36.7174 17.3358C38.1481 18.7125 40.3077 18.9555 42.0084 17.9297L38.931 14.8522L42.7643 11.0189Z" fill="white"/>
<path d="M39.7408 18.8205C37.1763 18.8205 35.0977 16.7419 35.0977 14.1773C35.0977 11.6128 37.1763 9.53418 39.7408 9.53418C40.9286 9.53418 42.0894 9.9931 42.9532 10.8299C43.0072 10.8839 43.0342 10.9379 43.0342 11.0189C43.0342 11.0999 43.0072 11.1539 42.9532 11.2079L39.3089 14.8522L42.1704 17.7137C42.2784 17.8217 42.2784 17.9837 42.1704 18.0916C42.1434 18.1186 42.1434 18.1186 42.1164 18.1456C41.4145 18.5775 40.5777 18.8205 39.7408 18.8205ZM39.7408 10.1011C37.4732 10.1011 35.6376 11.9367 35.6646 14.2043C35.6646 16.4719 37.5002 18.3076 39.7678 18.2806C40.3887 18.2806 41.0096 18.1456 41.5765 17.8487L38.742 15.0412C38.688 14.9872 38.661 14.9332 38.661 14.8522C38.661 14.7712 38.688 14.7172 38.742 14.6633L42.3593 11.0459C41.6305 10.425 40.7126 10.1011 39.7408 10.1011Z" fill="#FF6C37"/>
<path d="M42.845 11.0999L42.791 11.0459L38.9307 14.8522L41.9811 17.9027C42.2781 17.7137 42.575 17.4977 42.818 17.2548C44.5457 15.5541 44.5457 12.8006 42.845 11.0999Z" fill="white"/>
<path d="M42.0076 18.1997C41.9266 18.1997 41.8726 18.1727 41.8186 18.1187L38.7411 15.0412C38.6872 14.9873 38.6602 14.9333 38.6602 14.8523C38.6602 14.7713 38.6872 14.7173 38.7411 14.6633L42.5745 10.83C42.6824 10.722 42.8444 10.722 42.9524 10.83L43.0334 10.884C44.842 12.6927 44.842 15.6081 43.0604 17.4438C42.7904 17.7138 42.4935 17.9567 42.1695 18.1457C42.0885 18.1727 42.0345 18.1997 42.0076 18.1997ZM39.308 14.8523L42.0345 17.5788C42.2505 17.4438 42.4665 17.2549 42.6284 17.0929C44.1672 15.5542 44.2481 13.0436 42.7634 11.4239L39.308 14.8523Z" fill="#FF6C37"/>
<path d="M37.2035 17.8216C36.5556 17.1737 35.5028 17.1737 34.8549 17.8216L24.6777 27.9988L26.3784 29.6995L37.1495 20.2512C37.8514 19.6573 37.9053 18.6045 37.3115 17.9026C37.2575 17.8756 37.2305 17.8486 37.2035 17.8216Z" fill="white"/>
<path d="M26.3505 29.9693C26.2695 29.9693 26.2156 29.9424 26.1616 29.8884L24.4609 28.1877C24.3529 28.0797 24.3529 27.9177 24.4609 27.8097L34.638 17.6326C35.3939 16.8767 36.6087 16.8767 37.3645 17.6326C38.1204 18.3884 38.1204 19.6032 37.3645 20.3591C37.3375 20.3861 37.3106 20.4131 37.2836 20.4401L26.5125 29.8884C26.4855 29.9424 26.4315 29.9693 26.3505 29.9693ZM25.0548 27.9987L26.3775 29.3215L36.9596 20.0351C37.5535 19.5492 37.6075 18.6584 37.1216 18.0645C36.6357 17.4706 35.7448 17.4166 35.1509 17.9025C35.1239 17.9295 35.097 17.9565 35.043 17.9835L25.0548 27.9987Z" fill="#FF6C37"/>
<path d="M16.8765 39.5798C16.7685 39.6338 16.7145 39.7418 16.7415 39.8498L17.2004 41.7934C17.3084 42.0634 17.1464 42.3873 16.8495 42.4683C16.6335 42.5493 16.3906 42.4683 16.2556 42.3063L13.2861 39.3639L22.9774 29.6726L26.3248 29.7266L28.5924 31.9942C28.0525 32.4531 24.7861 35.6115 16.8765 39.5798Z" fill="white"/>
<path d="M16.6597 42.7382C16.4437 42.7382 16.2278 42.6572 16.0928 42.4952L13.1503 39.5528C13.0963 39.4988 13.0693 39.4448 13.0693 39.3638C13.0693 39.2828 13.0963 39.2288 13.1503 39.1748L22.8416 29.4836C22.8956 29.4296 22.9766 29.4026 23.0305 29.4026L26.3779 29.4566C26.4589 29.4566 26.5129 29.4836 26.5669 29.5376L28.8345 31.8052C28.8885 31.8591 28.9155 31.9401 28.9155 32.0211C28.9155 32.1021 28.8885 32.1561 28.8075 32.2101L28.6185 32.3721C25.757 34.8826 21.8698 37.3931 17.0376 39.7957L17.4965 41.7124C17.5775 42.0633 17.4156 42.4412 17.0916 42.6302C16.9296 42.7112 16.7947 42.7382 16.6597 42.7382ZM13.6902 39.3638L16.4707 42.1173C16.5517 42.2523 16.7137 42.3063 16.8487 42.2253C16.9836 42.1443 17.0376 41.9823 16.9566 41.8473L16.4977 39.9037C16.4437 39.6607 16.5517 39.4448 16.7677 39.3368C21.5458 36.9342 25.4061 34.4507 28.2406 31.9941L26.243 29.9965L23.1385 29.9425L13.6902 39.3638Z" fill="#FF6C37"/>
<path d="M10.9908 41.6854L13.3124 39.3638L16.7678 42.8191L11.2607 42.4412C11.0178 42.4142 10.8558 42.1983 10.8828 41.9553C10.8828 41.8473 10.9098 41.7393 10.9908 41.6854Z" fill="white"/>
<path d="M16.7677 43.0622L11.2337 42.6842C10.8288 42.6572 10.5588 42.3063 10.5858 41.9014C10.6128 41.7394 10.6668 41.5774 10.8018 41.4695L13.1234 39.1479C13.2314 39.0399 13.3933 39.0399 13.5013 39.1479L16.9567 42.6033C17.0377 42.6842 17.0647 42.7922 17.0107 42.9002C16.9567 43.0082 16.8757 43.0622 16.7677 43.0622ZM13.3123 39.7418L11.1797 41.8744C11.0987 41.9284 11.0987 42.0634 11.1797 42.1173C11.2067 42.1443 11.2337 42.1713 11.2877 42.1713L16.0659 42.4953L13.3123 39.7418Z" fill="#FF6C37"/>
<path d="M22.0317 30.9143C21.8697 30.9143 21.7617 30.7793 21.7617 30.6443C21.7617 30.5634 21.7887 30.5094 21.8427 30.4554L24.4612 27.8368C24.5692 27.7289 24.7312 27.7289 24.8392 27.8368L26.5399 29.5375C26.6208 29.6185 26.6478 29.6995 26.6208 29.8075C26.5938 29.8885 26.5129 29.9695 26.4049 29.9965L22.0857 30.9143C22.0587 30.9143 22.0317 30.9143 22.0317 30.9143ZM24.6502 28.4037L22.8685 30.1854L25.784 29.5645L24.6502 28.4037Z" fill="#FF6C37"/>
<path d="M26.3235 29.7264L23.354 30.3743C23.1381 30.4283 22.9221 30.2933 22.8681 30.0774C22.8411 29.9424 22.8681 29.8074 22.9761 29.6994L24.6228 28.0527L26.3235 29.7264Z" fill="white"/>
<path d="M23.3009 30.6443C22.9229 30.6443 22.626 30.3474 22.626 29.9695C22.626 29.7805 22.707 29.6185 22.8149 29.4835L24.4616 27.8368C24.5696 27.7289 24.7316 27.7289 24.8396 27.8368L26.5403 29.5375C26.6213 29.6185 26.6483 29.6995 26.6213 29.8075C26.5943 29.8885 26.5133 29.9695 26.4053 29.9965L23.4358 30.6443C23.3818 30.6443 23.3278 30.6443 23.3009 30.6443ZM24.6506 28.4037L23.1929 29.8615C23.1389 29.9155 23.1389 29.9695 23.1659 30.0234C23.1929 30.0774 23.2469 30.1044 23.3278 30.1044L25.8114 29.5645L24.6506 28.4037Z" fill="#FF6C37"/>
<path d="M42.8725 13.6915C42.8185 13.5295 42.6296 13.4485 42.4676 13.5025C42.3056 13.5565 42.2246 13.7455 42.2786 13.9074C42.2786 13.9344 42.3056 13.9614 42.3056 13.9884C42.4676 14.3124 42.4136 14.7173 42.1976 15.0142C42.0897 15.1492 42.1167 15.3382 42.2246 15.4461C42.3596 15.5541 42.5486 15.5271 42.6566 15.3922C43.0615 14.8792 43.1425 14.2314 42.8725 13.6915Z" fill="#FF6C37"/>
</svg>
