<svg width="60" height="54" viewBox="0 0 60 54" fill="none" xmlns="http://www.w3.org/2000/svg">
<path d="M29.8098 31.9581C32.8815 31.9581 35.3716 29.468 35.3716 26.3963C35.3716 23.3246 32.8815 20.8345 29.8098 20.8345C26.7381 20.8345 24.248 23.3246 24.248 26.3963C24.248 29.468 26.7381 31.9581 29.8098 31.9581Z" fill="#00D8FF"/>
<path fill-rule="evenodd" clip-rule="evenodd" d="M30.2185 14.6727C39.7013 14.7372 50.0474 15.4291 57.1494 21.7621C57.358 21.9485 57.5592 22.1422 57.7555 22.3422C59.431 24.05 60.3066 26.8073 58.954 29.0764C56.1793 33.7353 49.9742 35.7673 43.9665 37.018C34.9816 38.8885 25.5869 38.9034 16.6058 37.2564C11.4378 36.3075 6.15294 34.6445 2.48026 31.1655C1.05069 29.8117 -0.171469 28.0307 0.0198037 26.0484C0.330311 22.8415 3.40681 20.7834 5.99644 19.3899C13.189 15.5197 21.9528 14.654 30.2185 14.6727ZM29.5304 16.1296C20.558 16.1904 10.8466 16.763 3.91853 22.4999C3.67633 22.6999 3.44283 22.9098 3.21802 23.1296C3.07271 23.2712 2.93236 23.419 2.79698 23.5705C1.58103 24.9368 1.16247 27.1314 2.3101 28.7722C3.46519 30.4228 5.21893 31.6139 7.02484 32.5852C13.779 36.2169 21.7603 36.8615 29.5416 36.8888C37.4197 36.9174 45.5438 36.1995 52.5029 32.6013C55.2751 31.1668 58.3951 29.0603 58.2846 26.3477C58.1827 23.8587 55.7558 22.3211 53.9387 21.2231C53.4469 20.9263 52.9414 20.6518 52.4284 20.3934C45.5202 16.9319 37.4247 16.1122 29.5304 16.1296Z" fill="#00D8FF"/>
<path fill-rule="evenodd" clip-rule="evenodd" d="M42.3714 0.000750093C45.8404 0.0889341 47.6376 4.25966 47.8749 7.33989C47.9221 7.95221 47.9394 8.56701 47.932 9.18182C47.9245 9.84754 47.8885 10.5133 47.8301 11.1765C47.0986 19.3888 43.3489 27.2098 38.9335 34.4322C34.615 41.4969 29.3488 48.5417 22.1848 51.8157C19.8162 52.8987 16.9993 53.5669 14.9027 52.3584C12.0287 50.7028 11.7145 46.8302 11.7679 43.8928C11.7815 43.1711 11.8287 42.4495 11.9032 41.7304C13.0074 31.0986 18.3966 21.027 25.1408 12.3502C29.0755 7.28773 33.7567 2.26621 39.588 0.44788C40.5059 0.160971 41.235 -0.0129122 42.3714 0.000750093ZM42.205 1.45641C38.1324 1.52099 34.4759 4.53912 31.2379 7.67524C22.725 15.9186 16.4516 26.882 13.9278 38.3794C13.7328 39.2699 13.5688 40.1667 13.4483 41.0696C13.3552 41.7689 13.2869 42.4719 13.2508 43.1774C13.2223 43.7388 13.2123 44.3014 13.2297 44.864C13.2422 45.3037 13.2707 45.7434 13.3192 46.1806C13.3552 46.5147 13.4036 46.8475 13.4645 47.1779C13.5104 47.4226 13.5638 47.666 13.6259 47.9082C13.6769 48.1045 13.734 48.2995 13.7986 48.4932C14.3066 50.0247 15.6157 51.4878 17.3731 51.5362C21.4731 51.648 25.3333 48.6584 28.6706 45.4093C34.5293 39.7071 38.895 32.5419 42.3056 25.0102C45.0579 18.9293 47.5755 12.3192 46.1695 5.62589C46.1161 5.37252 46.054 5.12163 45.9832 4.87322C45.9249 4.67077 45.859 4.47081 45.787 4.27332C45.2405 2.78413 43.955 1.45268 42.205 1.45641Z" fill="#00D8FF"/>
<path fill-rule="evenodd" clip-rule="evenodd" d="M17.5239 0.0555303C21.9505 0.14123 25.9262 3.1457 29.4561 6.51035C35.8972 12.6497 40.648 20.4596 44.2523 28.6793C47.0444 35.0472 49.6129 42.195 47.3301 48.9144C46.6109 51.0321 44.7914 52.9696 42.3657 53.0193C37.918 53.1087 33.7957 49.8745 30.2187 46.3931C21.245 37.6567 14.5828 26.1232 12.2999 13.8917C12.136 13.0173 12.0056 12.1355 11.9162 11.2499C11.8429 10.5271 11.7969 9.80048 11.7845 9.07389C11.7746 8.48766 11.787 7.90142 11.828 7.31767C11.8553 6.92767 11.895 6.54016 11.9484 6.15389C11.9994 5.79121 12.064 5.42978 12.1447 5.07208C12.1981 4.83485 12.2577 4.60011 12.326 4.36661C12.9955 2.07755 14.7368 0.0381419 17.5239 0.0555303ZM17.3562 1.51243C14.7641 1.56956 13.578 4.62619 13.3395 6.77117C13.2911 7.21085 13.2613 7.65426 13.2476 8.09766C13.2302 8.66402 13.2377 9.23163 13.2662 9.79799C13.6736 17.9941 17.3376 25.9183 21.7592 33.1742C25.9225 40.0053 30.9502 46.8092 37.8658 50.3067C39.863 51.3165 42.2899 52.1102 44.0151 51.1563C46.1787 49.959 46.4445 47.106 46.56 44.9797C46.5911 44.4009 46.5948 43.8196 46.5762 43.2396C46.5538 42.5118 46.4967 41.7852 46.411 41.0623C45.6136 34.3094 42.6228 27.9192 39.1874 21.8804C34.9123 14.3687 29.6747 6.88171 22.2622 2.97057C20.7271 2.16077 19.0653 1.49877 17.3562 1.51243Z" fill="#00D8FF"/>
</svg>
