<svg width="57" height="53" viewBox="0 0 57 53" fill="none" xmlns="http://www.w3.org/2000/svg">
<path d="M38.9753 36.6657C41.0511 36.4543 42.6259 34.695 42.5543 32.5836C42.4828 30.4725 40.6931 28.7835 38.5457 28.7835H38.4026C36.1834 28.8538 34.4657 30.6837 34.5373 32.8652C34.6089 33.9209 35.0383 34.8357 35.6826 35.469C33.2488 40.1843 29.5266 43.6326 23.9434 46.518C20.1495 48.4885 16.2127 49.1923 12.2759 48.6998C9.05471 48.2775 6.54939 46.8702 4.97439 44.5474C2.68395 41.0991 2.46928 37.3692 4.40199 33.6394C5.7621 30.9651 7.90927 28.9945 9.26938 28.0092C8.98309 27.0943 8.5535 25.5462 8.33884 24.4202C-2.04039 31.8096 -0.966581 41.803 2.18299 46.518C4.54504 50.0368 9.341 52.2186 14.638 52.2186C16.0695 52.2186 17.5011 52.0776 18.9328 51.726C28.0952 49.9665 35.0385 44.6179 38.9753 36.6657ZM51.5736 27.939C46.1334 21.6756 38.1163 18.2273 28.9539 18.2273H27.8089C27.1646 16.9605 25.8045 16.1158 24.3013 16.1158H24.1581C21.9392 16.1863 20.2215 18.016 20.2929 20.1977C20.3646 22.309 22.1539 23.998 24.3013 23.998H24.4444C26.0192 23.9277 27.3793 22.9424 27.9519 21.6051H29.2402C34.6806 21.6051 39.8342 23.1533 44.4872 26.1795C48.066 28.5019 50.643 31.5282 52.0746 35.1876C53.2914 38.1433 53.2198 41.0288 51.9313 43.492C49.9271 47.2217 46.563 49.2627 42.1249 49.2627C39.2616 49.2627 36.5417 48.4182 35.1099 47.7848C34.3226 48.4885 32.8909 49.6144 31.8887 50.3185C34.9669 51.7258 38.1163 52.5 41.1227 52.5C47.9944 52.5 53.0767 48.7699 55.0095 45.0402C57.0851 40.9583 56.9419 33.9208 51.5736 27.939ZM15.2106 37.8617C15.2822 39.973 17.0717 41.6618 19.2191 41.6618H19.3624C21.5812 41.5917 23.2991 39.7618 23.2275 37.5803C23.1561 35.4689 21.3664 33.78 19.2191 33.78H19.0761C18.9328 33.78 18.7179 33.78 18.5751 33.8502C15.6401 29.0648 14.4233 23.8572 14.8528 18.2271C15.1389 14.0045 16.5707 10.3449 19.0761 7.31873C21.1517 4.71482 25.1602 3.44809 27.8805 3.37789C35.4679 3.23704 38.6888 12.5265 38.9036 16.2565C39.8342 16.4676 41.409 16.9603 42.4828 17.3123C41.6237 5.91157 34.4657 0 27.5942 0C21.1517 0 15.2106 4.57442 12.8483 11.3304C9.55569 20.3384 11.7031 28.9945 15.7115 35.821C15.3538 36.3135 15.1389 37.0875 15.2106 37.8617Z" fill="#764ABC"/>
</svg>
