<svg width="53" height="53" viewBox="0 0 53 53" fill="none" xmlns="http://www.w3.org/2000/svg">
<path fill-rule="evenodd" clip-rule="evenodd" d="M26.25 0C31.4418 0 36.5169 1.53954 40.8337 4.42392C45.1505 7.30831 48.515 11.408 50.5018 16.2046C52.4886 21.0011 53.0085 26.2791 51.9956 31.3711C50.9828 36.4631 48.4827 41.1404 44.8116 44.8116C41.1404 48.4827 36.4631 50.9828 31.3711 51.9956C26.2791 53.0085 21.0011 52.4886 16.2046 50.5018C11.408 48.515 7.30831 45.1505 4.42392 40.8337C1.53954 36.5169 0 31.4418 0 26.25C0 19.2881 2.76562 12.6113 7.68845 7.68845C12.6113 2.76562 19.2881 0 26.25 0Z" fill="#CC6699"/>
<path d="M42.7165 11.2351C41.5277 6.57383 33.7971 5.04758 26.4809 7.63883C21.8989 9.17849 17.6657 11.6067 14.0234 14.7845C9.99399 18.5532 9.35086 21.8345 9.61524 23.2051C10.5527 28.0426 17.1771 31.2038 19.9015 33.5495V33.5626C19.099 33.9582 13.219 36.9376 11.839 39.9751C10.3877 43.1851 12.0696 45.4876 13.1852 45.797C14.8602 46.2002 16.6194 46.069 18.216 45.4217C19.8126 44.7743 21.1665 43.6434 22.0877 42.1876C22.8491 41.0081 23.3254 39.6675 23.479 38.272C23.6326 36.8765 23.4593 35.4645 22.9727 34.1476C24.285 33.8141 25.6491 33.7359 26.9909 33.917C31.5959 34.4551 32.4996 37.3295 32.3271 38.5332C32.246 38.9617 32.0735 39.3677 31.8215 39.7236C31.5695 40.0795 31.2437 40.3769 30.8665 40.5957C30.544 40.7963 30.4446 40.8638 30.4727 41.0138C30.5121 41.2295 30.6602 41.222 30.9359 41.1751C31.6279 40.9571 32.2376 40.5347 32.6848 39.9633C33.132 39.392 33.3956 38.6986 33.4409 37.9745C33.5515 35.162 30.8496 32.0007 26.0646 32.0813C24.6749 32.0416 23.2881 32.2317 21.9602 32.6438C21.8946 32.5688 21.8271 32.4938 21.7577 32.4188C18.799 29.2632 13.3315 27.0301 13.5621 22.787C13.6465 21.2438 14.1827 17.1826 24.0621 12.2551C32.1621 8.21821 38.6459 9.33008 39.7671 11.792C41.3684 15.3095 36.3021 21.8438 27.8909 22.787C26.9612 22.9757 26.001 22.9527 25.0814 22.7196C24.1618 22.4866 23.3065 22.0495 22.579 21.4407C22.1365 20.9532 22.0709 20.9326 21.9059 21.0226C21.6377 21.1707 21.8084 21.602 21.9059 21.857C22.2279 22.4374 22.6627 22.9477 23.1846 23.3579C23.7065 23.7681 24.3051 24.0699 24.9452 24.2457C28.2523 24.9643 31.7017 24.6232 34.804 23.2707C39.9059 21.3038 43.8846 15.8195 42.7165 11.2351ZM21.034 34.9932C21.4064 36.277 21.3875 37.6427 20.9796 38.9157C20.9359 39.0482 20.8877 39.1795 20.8352 39.3095C20.7827 39.4395 20.7259 39.5645 20.6646 39.6845C20.3491 40.3301 19.9403 40.9258 19.4515 41.4526C17.9271 43.1157 15.7952 43.7457 14.8821 43.2151C13.8959 42.6432 14.389 40.2976 16.1571 38.4282C17.5157 37.0848 19.0821 35.9692 20.7959 35.1245L21.034 34.9932Z" fill="white"/>
</svg>
