<svg width="50" height="43" viewBox="0 0 50 43" fill="none" xmlns="http://www.w3.org/2000/svg">
<path fill-rule="evenodd" clip-rule="evenodd" d="M23.2547 26.842H26.7432H41.278C45.1312 26.842 48.2547 23.8377 48.2547 20.1315C48.2547 16.4254 45.1312 13.421 41.278 13.421C45.1312 13.421 48.2547 10.4166 48.2547 6.71052C48.2547 3.0044 45.1312 0 41.278 0H8.71989C4.86674 0 1.74316 3.0044 1.74316 6.71052C1.74316 10.4166 4.86674 13.421 8.71989 13.421C4.86674 13.421 1.74316 16.4254 1.74316 20.1315C1.74316 23.8377 4.86674 26.842 8.71989 26.842H23.2547ZM27.3245 5.0329C26.3612 5.0329 25.5802 5.784 25.5802 6.71052C25.5802 7.63705 26.3612 8.38815 27.3245 8.38815H41.278C42.2412 8.38815 43.0222 7.63705 43.0222 6.71052C43.0222 5.784 42.2412 5.0329 41.278 5.0329H27.3245ZM27.3245 18.454C26.3612 18.454 25.5802 19.205 25.5802 20.1315C25.5802 21.058 26.3612 21.8092 27.3245 21.8092H41.278C42.2412 21.8092 43.0222 21.058 43.0222 20.1315C43.0222 19.205 42.2412 18.454 41.278 18.454H27.3245ZM13.3711 6.71052C13.3711 7.9459 12.3299 8.94737 11.0455 8.94737C9.76109 8.94737 8.71989 7.9459 8.71989 6.71052C8.71989 5.47515 9.76109 4.47368 11.0455 4.47368C12.3299 4.47368 13.3711 5.47515 13.3711 6.71052ZM13.3711 20.1315C13.3711 21.367 12.3299 22.3685 11.0455 22.3685C9.76109 22.3685 8.71989 21.367 8.71989 20.1315C8.71989 18.8962 9.76109 17.8947 11.0455 17.8947C12.3299 17.8947 13.3711 18.8962 13.3711 20.1315Z" fill="#3B3B3B"/>
<path opacity="0.6" d="M50 38.0275C50 37.101 49.219 36.3498 48.2557 36.3498H29.313C28.841 35.2285 27.91 34.333 26.7442 33.879V26.8433H23.2558V33.879C22.09 34.333 21.159 35.2285 20.687 36.3498H1.74417C0.7809 36.3498 0 37.101 0 38.0275C0 38.954 0.7809 39.705 1.74417 39.705H20.687C21.377 41.3445 23.048 42.5013 25 42.5013C26.952 42.5013 28.623 41.3445 29.313 39.705H48.2557C49.219 39.705 50 38.954 50 38.0275Z" fill="#6F6F6F"/>
</svg>
