<svg width="54" height="33" viewBox="0 0 54 33" fill="none" xmlns="http://www.w3.org/2000/svg">
<path d="M13.5 11C15.3 3.66667 19.8 0 27 0C37.8 0 39.15 8.25 44.55 9.625C48.15 10.5417 51.3 9.16667 54 5.5C52.2 12.8333 47.7 16.5 40.5 16.5C29.7 16.5 28.35 8.25 22.95 6.875C19.35 5.95833 16.2 7.33333 13.5 11ZM0 27.5C1.8 20.1667 6.3 16.5 13.5 16.5C24.3 16.5 25.65 24.75 31.05 26.125C34.65 27.0417 37.8 25.6667 40.5 22C38.7 29.3333 34.2 33 27 33C16.2 33 14.85 24.75 9.45 23.375C5.85 22.4583 2.7 23.8333 0 27.5Z" fill="#44A8B3"/>
</svg>
