<svg width="61" height="61" viewBox="0 0 61 61" fill="none" xmlns="http://www.w3.org/2000/svg">
<path d="M30.6548 0.373291C14.0861 0.373291 0.654785 13.8046 0.654785 30.3733C0.654785 46.942 14.0861 60.3733 30.6548 60.3733C47.2235 60.3733 60.6548 46.942 60.6548 30.3733C60.6548 13.8046 47.2235 0.373291 30.6548 0.373291Z" fill="#40B3E0"/>
<path d="M45.2522 17.6306L39.8939 44.6463C39.8939 44.6463 39.1446 46.5199 37.0837 45.6206L24.7186 36.1406L20.2223 33.9675L12.6534 31.4193C12.6534 31.4193 11.4919 31.0073 11.3794 30.108C11.2671 29.2087 12.6909 28.7217 12.6909 28.7217L42.779 16.9185C42.779 16.9185 45.2522 15.832 45.2522 17.6306Z" fill="white"/>
<path d="M23.7685 44.3429C23.7685 44.3429 23.4076 44.3091 22.9578 42.885C22.5083 41.4612 20.2227 33.9673 20.2227 33.9673L38.3954 22.4267C38.3954 22.4267 39.4447 21.7896 39.4072 22.4267C39.4072 22.4267 39.5945 22.5389 39.0324 23.0635C38.4704 23.5882 24.7564 35.9157 24.7564 35.9157" fill="#D2E5F1"/>
<path d="M29.4596 39.7754L24.5687 44.2346C24.5687 44.2346 24.1864 44.5247 23.7681 44.3429L24.7046 36.0598" fill="#B5CFE4"/>
</svg>
