<svg width="53" height="53" viewBox="0 0 53 53" fill="none" xmlns="http://www.w3.org/2000/svg">
<path d="M50.04 0H2.46C1.10138 0 0 1.10138 0 2.46V50.04C0 51.3986 1.10138 52.5 2.46 52.5H50.04C51.3986 52.5 52.5 51.3986 52.5 50.04V2.46C52.5 1.10138 51.3986 0 50.04 0Z" fill="#3178C6"/>
<path fill-rule="evenodd" clip-rule="evenodd" d="M30.4594 40.7981V46.5506C31.5046 47.0665 32.6185 47.4296 33.7669 47.6288C35.094 47.8738 36.4411 47.9943 37.7907 47.9888C39.106 47.995 40.4182 47.8624 41.7057 47.5931C42.8616 47.3596 43.9644 46.9146 44.9588 46.2806C45.8819 45.6847 46.6428 44.8691 47.1732 43.9069C48.1231 41.9144 48.2484 39.6275 47.5219 37.5431C47.2153 36.7637 46.7586 36.0521 46.1775 35.4488C45.5539 34.8072 44.8454 34.254 44.0719 33.8044C43.1814 33.2828 42.2561 32.823 41.3025 32.4281C40.5525 32.1169 39.8775 31.8144 39.2775 31.5206C38.7446 31.2655 38.2346 30.965 37.7532 30.6225C37.3761 30.3581 37.0486 30.0294 36.7857 29.6513C36.5585 29.3079 36.4402 28.9041 36.4463 28.4925C36.4413 28.1137 36.5468 27.7416 36.75 27.4219C36.9707 27.0872 37.2651 26.8076 37.6107 26.6044C38.033 26.3557 38.4927 26.1765 38.9719 26.0738C39.5603 25.943 40.1617 25.8801 40.7644 25.8863C41.2713 25.888 41.7775 25.9243 42.2794 25.995C42.8215 26.0683 43.3578 26.1792 43.8844 26.3269C44.4201 26.4754 44.944 26.6634 45.4519 26.8894C45.9447 27.1091 46.4161 27.3739 46.86 27.6806V22.3125C45.9359 21.9629 44.9775 21.7115 44.0007 21.5625C42.8211 21.3909 41.6301 21.31 40.4382 21.3206C39.1353 21.3136 37.8361 21.4615 36.5682 21.7613C35.4221 22.0231 34.3323 22.4887 33.3507 23.1356C32.4388 23.7431 31.6859 24.5603 31.155 25.5188C30.5925 26.5831 30.3141 27.7747 30.3469 28.9781C30.3054 30.5696 30.8296 32.1242 31.8263 33.3656C33.0491 34.742 34.5911 35.7973 36.3169 36.4388C37.1044 36.7638 37.8388 37.0819 38.52 37.3931C39.1347 37.6666 39.7255 37.9909 40.2863 38.3625C40.7386 38.6567 41.1359 39.028 41.46 39.4594C41.7451 39.8507 41.8963 40.3234 41.8913 40.8075C41.8939 41.1702 41.8007 41.5272 41.6213 41.8425C41.4219 42.1813 41.1417 42.4654 40.8057 42.6694C40.3852 42.9257 39.9253 43.1107 39.4444 43.2169C38.8181 43.3569 38.1774 43.423 37.5357 43.4138C36.2762 43.4114 35.0269 43.1894 33.8438 42.7575C32.6078 42.3115 31.4616 41.6479 30.4594 40.7981ZM20.7957 26.4769H28.2957V21.7388H7.38379V26.4769H14.85V47.5781H20.7957V26.4769Z" fill="white"/>
</svg>
