<svg width="57" height="45" viewBox="0 0 57 45" fill="none" xmlns="http://www.w3.org/2000/svg">
<path fill-rule="evenodd" clip-rule="evenodd" d="M26.4605 0.226331C27.1207 -0.0754438 27.8793 -0.0754438 28.5395 0.226331L53.5395 11.6549C54.4293 12.0617 55 12.9502 55 13.9286C55 14.907 54.4293 15.7955 53.5395 16.2023L47.5 18.9633V33.6173C47.5 34.12 47.3737 34.6705 47.0552 35.182C46.2285 36.5105 40.4315 45 27.5 45C14.5686 45 8.7714 36.5105 7.94462 35.182C7.62625 34.6705 7.5 34.12 7.5 33.6173V18.9633L1.4606 16.2023C0.57075 15.7955 0 14.907 0 13.9286C0 12.9502 0.57075 12.0617 1.4606 11.6549L26.4605 0.226331ZM12.5 21.2488V32.9985C13.7247 34.6973 18.2838 40 27.5 40C36.7163 40 41.2753 34.6973 42.5 32.9985V21.2488L28.5395 27.6308C27.8793 27.9325 27.1207 27.9325 26.4605 27.6308L12.5 21.2488ZM8.5131 13.9286L11.0394 15.0835L27.5 22.6083L43.9605 15.0835L46.487 13.9286L27.5 5.24886L8.5131 13.9286ZM56.25 21.25C56.25 23.321 54.571 25 52.5 25C50.429 25 48.75 23.321 48.75 21.25C48.75 19.179 50.429 17.5 52.5 17.5C54.571 17.5 56.25 19.179 56.25 21.25ZM55 28.75C55 27.3693 53.8807 26.25 52.5 26.25C51.1193 26.25 50 27.3693 50 28.75V42.5C50 43.8808 51.1193 45 52.5 45C53.8807 45 55 43.8808 55 42.5V28.75Z" fill="#F3EFF5"/>
</svg>
