<svg width="51" height="51" viewBox="0 0 51 51" fill="none" xmlns="http://www.w3.org/2000/svg">
<path d="M20.5 36.96V42.999C20.5 45.7605 22.7385 47.999 25.5 47.999C28.2615 47.999 30.5 45.7605 30.5 42.999V36.96M25.5 3V5.5M41.4107 9.58935L39.643 11.3571M9.58935 9.58935L11.3571 11.3571M5.5 25.5H3M48 25.5H45.5M38 25.5C38 32.4035 32.4035 38 25.5 38C18.5964 38 13 32.4035 13 25.5C13 18.5964 18.5964 13 25.5 13C32.4035 13 38 18.5964 38 25.5Z" stroke="#F3EFF5" stroke-width="5" stroke-linecap="round" stroke-linejoin="round"/>
</svg>
