<svg width="57" height="55" viewBox="0 0 57 55" fill="none" xmlns="http://www.w3.org/2000/svg">
<path d="M28.125 0C25.6834 0 23.5547 2.37187 23.5547 5.50781C23.5547 8.64375 25.6834 11.0156 28.125 11.0156C30.5666 11.0156 32.6953 8.64375 32.6953 5.50781C32.6953 2.37187 30.5666 0 28.125 0ZM11.0459 2.57039L9.05484 3.56602C10.8029 6.16137 12.8298 9.07535 14.8861 11.6457C17.1955 14.5325 19.5677 16.9248 21.0967 17.6893L21.6797 17.9809V22.6072C24.859 23.03 27.1308 23.1911 29.6338 23.0865C29.5564 23.0291 29.4796 22.9717 29.4053 22.9131C28.8293 22.4584 28.3295 21.9514 27.9404 21.4065C27.2525 21.3377 26.7009 20.8939 26.3711 20.3929C26.0121 19.8479 25.8355 19.1926 25.8355 18.4871C25.8355 17.7817 26.0121 17.1264 26.3711 16.5812C26.7301 16.0363 27.3512 15.5575 28.125 15.5575C28.8988 15.5575 29.5199 16.0362 29.8789 16.5812C30.2379 17.1264 30.4145 17.7817 30.4145 18.4871C30.4145 19.1926 30.2379 19.8479 29.8789 20.393C29.8719 20.404 29.8637 20.4146 29.8564 20.4254C30.0814 20.7018 30.3645 20.983 30.7123 21.2575C31.4486 21.8389 32.4375 22.3661 33.6127 22.7411C33.9232 22.7031 34.2415 22.6625 34.5703 22.6192V17.9809L35.1533 17.6893C36.6824 16.9247 39.0545 14.5323 41.364 11.6456C43.4202 9.07524 45.4471 6.16125 47.1953 3.5659L45.2043 2.57027C39.7343 8.0182 34.1944 13.125 28.125 13.125C22.0556 13.125 16.5156 8.0182 11.0459 2.57039ZM14.4553 23.6559L15.8794 30.7766C27.722 31.8737 28.528 31.8737 40.3706 30.7766L41.7941 23.6593C28.8941 25.704 27.3543 25.6706 14.4554 23.6558L14.4553 23.6559ZM19.0542 33.1874L20.6187 45.703H35.6316L37.1958 33.1874C29.2552 33.8943 26.995 33.8943 19.0542 33.1874ZM14.1797 47.8125V50.1562H42.0703V47.8125H14.1797ZM0 52.1484V54.2578H56.25V52.1484H0Z" fill="#F3EFF5"/>
</svg>
