<svg width="60" height="42" viewBox="0 0 60 42" fill="none" xmlns="http://www.w3.org/2000/svg">
<path d="M45.2618 0L39.4187 5.84309L39.9619 6.40723C39.5749 6.71976 39.1833 7.02469 38.8031 7.29539C38.1895 7.73367 37.6005 8.08523 37.2013 8.25012C37.1755 8.2616 37.067 8.29207 36.8516 8.29113C36.5075 8.29488 35.932 8.20723 35.2269 8.09965C34.5189 7.99289 33.6718 7.87676 32.7171 7.8757C31.8841 7.87289 30.9656 7.97391 29.9985 8.23969C29.0333 7.97484 28.1166 7.8757 27.2857 7.87676C26.3299 7.87676 25.4829 7.99301 24.7748 8.1007C24.0697 8.20828 23.4952 8.29605 23.1512 8.29219C22.9349 8.29406 22.8272 8.26172 22.8053 8.25117C22.3793 8.0768 21.737 7.68797 21.0758 7.2068C20.7338 6.95812 20.385 6.68555 20.0391 6.40547L20.5813 5.8432L14.7382 0.000117123L0 15.2651L5.84309 21.1082L7.55344 19.3368L11.3287 22.6317C11.4345 23.2635 11.6337 23.86 11.8634 24.4261C12.0129 24.7863 12.1768 25.1331 12.3446 25.459C11.9796 26.0632 11.7805 26.7531 11.7824 27.4525C11.7814 28.1462 11.972 28.8551 12.3636 29.485C12.9592 30.4426 13.9131 31.0448 14.943 31.2354C14.9489 31.9167 15.1376 32.6114 15.5215 33.2289C16.2505 34.401 17.5121 35.0508 18.7985 35.0488C18.8481 35.0488 18.8986 35.0412 18.948 35.0393C19.0129 35.5843 19.192 36.1275 19.4988 36.6211C20.2279 37.7931 21.4903 38.443 22.7748 38.441C22.9025 38.441 23.0293 38.4277 23.1579 38.4152C23.2188 38.906 23.3818 39.3957 23.6572 39.8379C24.3214 40.9052 25.4706 41.4978 26.6396 41.495C27.2705 41.496 27.9165 41.3244 28.4902 40.968L30.2416 39.8781C30.5866 40.101 30.9486 40.2973 31.3288 40.4573C32.0368 40.7556 32.802 40.9385 33.5977 40.9394C34.4705 40.9433 35.3919 40.7041 36.1847 40.1467C36.7011 39.7866 37.1385 39.2928 37.4967 38.7108C37.552 38.7127 37.5968 38.7223 37.654 38.7232C38.017 38.7232 38.4154 38.6688 38.8099 38.5459C39.2072 38.425 39.6018 38.2438 40.0229 38.0028C41.0272 37.4368 41.6295 36.604 41.9221 35.8903C41.9869 35.7341 42.0335 35.5873 42.0755 35.4453C42.3185 35.3682 42.551 35.2738 42.7615 35.1519C43.5381 34.705 44.0441 34.0256 44.3557 33.3434C44.6682 32.6543 44.8055 31.9387 44.8073 31.2509C44.8073 31.1831 44.7988 31.1174 44.7959 31.0507C45.3037 30.843 45.7601 30.5543 46.1489 30.2141C46.5472 29.8652 46.8817 29.4594 47.1303 28.9963C47.3782 28.5352 47.544 28.0072 47.545 27.4289C47.5459 27.0525 47.4687 26.6561 47.3 26.2844C47.2457 26.1663 47.1686 26.0577 47.098 25.9481C47.3945 25.4173 47.6964 24.819 47.9441 24.173C48.13 23.6841 48.2863 23.1715 48.3758 22.633L52.3121 19.1979L54.1569 21.1084L60 15.2651L45.2618 0ZM16.2591 28.2977L16.1913 28.3406C16.0151 28.4494 15.8302 28.4979 15.6396 28.4988C15.2861 28.497 14.9468 28.3244 14.7477 28.0034C14.6391 27.8271 14.5895 27.6412 14.5895 27.4526C14.5914 27.0971 14.7629 26.7598 15.0831 26.5607L17.3977 25.1228C17.5739 25.0132 17.7588 24.9656 17.9474 24.9636C18.3028 24.9674 18.6402 25.1371 18.8404 25.46L20.0324 24.7196L18.8404 25.461C18.949 25.6363 18.9975 25.8211 18.9986 26.0099C18.9966 26.2576 18.908 26.494 18.748 26.6845L16.7602 27.9195C16.5792 28.0318 16.4143 28.1624 16.2591 28.2977ZM19.3492 32.0835C19.1729 32.1921 18.988 32.2417 18.7984 32.2417C18.4439 32.2398 18.1048 32.0682 17.9055 31.7471C17.7968 31.5709 17.7483 31.3841 17.7473 31.1954C17.7482 30.9497 17.8369 30.7133 17.996 30.5246L19.9847 29.2869C20.1648 29.1753 20.3278 29.0459 20.4831 28.9105L20.5555 28.8667C20.7318 28.7571 20.9176 28.7085 21.1054 28.7085C21.4617 28.7104 21.798 28.8819 21.9981 29.2039C22.1067 29.3802 22.1554 29.5641 22.1563 29.7538C22.1544 30.1072 21.9839 30.4465 21.6599 30.6476L19.3492 32.0835ZM25.6372 34.0389L23.3256 35.4758C23.1503 35.5846 22.9654 35.634 22.7748 35.634C22.4213 35.6321 22.082 35.4606 21.8829 35.1395C21.7743 34.9623 21.7257 34.7774 21.7247 34.5878C21.7276 34.2323 21.8981 33.896 22.2183 33.6959L24.5329 32.258C24.7091 32.1484 24.894 32.1008 25.0826 32.1008C25.438 32.1016 25.7754 32.2732 25.9755 32.5953C26.0841 32.7717 26.1327 32.9565 26.1337 33.1461C26.1318 33.4994 25.9612 33.8367 25.6372 34.0389ZM29.2211 36.3828C29.2943 36.5 29.3258 36.622 29.3268 36.7496C29.3249 36.9869 29.2114 37.2128 28.9932 37.3491L27.0083 38.582C26.8902 38.6563 26.7682 38.6877 26.6395 38.6877C26.4014 38.6868 26.1756 38.5714 26.0412 38.3562C25.9678 38.237 25.9363 38.115 25.9354 37.9875C25.9382 37.7482 26.0516 37.5243 26.2659 37.3909H26.2669L28.2537 36.156C28.3747 36.0807 28.4958 36.0492 28.6225 36.0492C28.8616 36.0511 29.0856 36.1645 29.2199 36.3809L30.4129 35.6414L29.2211 36.3828ZM44.6568 27.6688C44.5548 27.866 44.3223 28.1232 44.0279 28.3034C43.7334 28.4855 43.3914 28.5921 43.0636 28.5912C42.9472 28.5912 42.8348 28.6111 42.7253 28.6397C42.5251 28.5959 42.325 28.5349 42.1279 28.4568C41.5171 28.2185 40.9464 27.8326 40.5432 27.5067C40.3412 27.3438 40.1811 27.1971 40.0744 27.0952L39.9562 26.978L39.9305 26.9512L39.9266 26.9475H39.9258C39.5331 26.5206 38.868 26.492 38.4402 26.8846C38.0123 27.2773 37.9828 27.9423 38.3764 28.373C38.4116 28.4092 38.9406 28.9866 39.8067 29.5813C40.2412 29.8786 40.7605 30.1816 41.3579 30.416C41.4961 30.4704 41.64 30.5208 41.7878 30.5666C41.8288 30.6589 41.8812 30.7467 41.943 30.8296L41.9402 30.8316C41.9479 30.8372 42.005 31.0184 42.0002 31.2509C42.007 31.6386 41.8659 32.1465 41.663 32.4266C41.5639 32.5696 41.4629 32.66 41.3648 32.7163C41.2648 32.7716 41.1637 32.8078 40.9741 32.8106L40.9064 32.8097C40.8663 32.8078 40.8284 32.8145 40.7892 32.8164C40.7873 32.8164 40.7864 32.8164 40.7864 32.8164C39.8735 32.8202 39.0237 32.4286 38.3966 31.9998C38.0841 31.7883 37.8334 31.5729 37.6648 31.4148C37.5818 31.3366 37.518 31.2718 37.4789 31.2319L37.438 31.188L37.4313 31.1795H37.4304C37.0502 30.7431 36.388 30.6954 35.9487 31.0757C35.5084 31.4568 35.4608 32.121 35.8419 32.5611L35.841 32.5603C35.882 32.606 36.368 33.1662 37.2132 33.7418C37.7696 34.1181 38.4957 34.5078 39.3581 34.7327C39.3486 34.7576 39.3429 34.7823 39.3314 34.8071C39.2209 35.0568 39.0627 35.314 38.632 35.5656C38.3413 35.7315 38.1336 35.8181 37.9879 35.862C37.8411 35.9058 37.7592 35.9144 37.6543 35.9153C37.5182 35.9173 37.3132 35.8867 36.9721 35.8171C36.9102 35.8038 36.8483 35.8 36.7863 35.7962C36.7634 35.7866 36.7416 35.778 36.7167 35.7656C36.368 35.6017 35.9429 35.3053 35.6295 35.0529C35.4722 34.9281 35.3388 34.8137 35.2473 34.7327L35.1444 34.6393L35.1206 34.6165L35.1158 34.6127C34.6956 34.2107 34.0286 34.2259 33.6265 34.646C33.2254 35.0662 33.2406 35.7333 33.6608 36.1344C33.6827 36.1543 34.1258 36.5795 34.747 37.0254C34.8575 37.1036 34.9795 37.1827 35.1015 37.2607C34.93 37.5342 34.7509 37.7219 34.5756 37.8468C34.2954 38.0393 33.9905 38.1307 33.5979 38.1327C33.2463 38.1336 32.8327 38.0469 32.4192 37.8716C32.282 37.8144 32.1477 37.7334 32.0123 37.6582C32.0914 37.3628 32.1353 37.0569 32.1343 36.75C32.1353 36.1182 31.9618 35.4722 31.6055 34.8995C31.0004 33.9266 29.9913 33.3548 28.9345 33.2614C28.9345 33.2232 28.9411 33.1853 28.9411 33.1461C28.942 32.4534 28.7515 31.7426 28.3608 31.1136V31.1156C27.6309 29.9398 26.3673 29.2898 25.0828 29.2927C25.0334 29.2927 24.9827 29.3012 24.9333 29.3032C24.8685 28.7571 24.6893 28.2159 24.3826 27.7223H24.3834C23.7879 26.7628 22.8332 26.1607 21.8031 25.9719C21.7965 25.2906 21.6088 24.5959 21.2246 23.9784H21.2256C20.4967 22.8055 19.2321 22.1546 17.9476 22.1565C17.2529 22.1565 16.545 22.3472 15.9151 22.7378L14.563 23.5782C14.5305 23.5039 14.4896 23.4315 14.4601 23.3571C14.2248 22.794 14.077 22.2384 14.0609 21.8555L14.0295 21.2627L9.50625 17.3141L18.082 8.43223C18.5204 8.79152 18.9702 9.14789 19.4314 9.48141C20.1956 10.0322 20.9531 10.5182 21.7269 10.8441C22.2234 11.0489 22.7074 11.0994 23.1516 11.1004C23.8624 11.0975 24.5141 10.9755 25.1936 10.8764C25.2374 10.8688 25.2831 10.865 25.3279 10.8582C24.3941 11.6596 23.5793 12.5268 22.8904 13.3339C22.31 14.0153 21.8203 14.6575 21.4324 15.1815C21.0495 15.7028 20.754 16.123 20.6244 16.2888C19.986 17.1197 19.7116 18.1136 19.7059 19.1093C19.7087 20.0355 19.9546 20.9998 20.593 21.8146C20.9113 22.2176 21.3343 22.5702 21.8393 22.8103C22.3434 23.0523 22.9208 23.1762 23.5221 23.1762C24.2682 23.1742 25.0505 22.9932 25.8786 22.6453C28.4781 21.5457 31.1576 20.813 33.1738 20.3613C34.182 20.1364 35.0252 19.9802 35.6132 19.882C35.7238 19.8639 35.8161 19.8486 35.9077 19.8335L44.7285 27.4376L44.7322 27.4395L44.7352 27.4443C44.734 27.4716 44.7205 27.5507 44.6568 27.6688ZM45.6773 21.2626L45.6468 21.8553C45.6306 22.1945 45.5153 22.6728 45.3218 23.1684C45.2236 23.4275 45.1036 23.6887 44.9779 23.9459L37.2529 17.2871C36.9527 17.028 36.5525 16.9079 36.159 16.9575C36.0905 16.9709 30.4246 17.6817 24.7863 20.0583C24.2251 20.2955 23.8039 20.3688 23.5219 20.367C23.2923 20.367 23.1521 20.3259 23.0483 20.2764C22.8977 20.203 22.79 20.0991 22.6834 19.9C22.5814 19.7038 22.5118 19.4141 22.5129 19.1092C22.5071 18.6709 22.6635 18.2249 22.8387 18.0135C23.057 17.7314 23.3237 17.3464 23.6916 16.849C24.2374 16.1095 24.9789 15.1528 25.863 14.2219C26.7454 13.2909 27.7717 12.3895 28.8475 11.7567C30.3026 10.9021 31.5423 10.6876 32.7172 10.6837C33.4404 10.6828 34.134 10.7733 34.8107 10.8752C35.4891 10.9753 36.1427 11.0953 36.8517 11.0992C37.2948 11.0982 37.776 11.0477 38.2706 10.8457L38.2772 10.8438C39.051 10.5179 39.8085 10.032 40.5727 9.48117C41.0311 9.14953 41.4827 8.79129 41.9191 8.43305L50.3607 17.1757L45.6773 21.2626Z" fill="#F3EFF5"/>
</svg>
