<svg width="100" height="100" viewBox="0 0 100 100" fill="none" xmlns="http://www.w3.org/2000/svg">
<circle cx="50" cy="50" r="48.5" stroke="#931FFF" stroke-width="3"/>
<path d="M24.544 70.304C23.616 69.824 23.072 69.312 22.912 68.768C22.752 68.256 22.928 67.488 23.44 66.464L39.184 35.216C39.536 34.512 39.872 34.016 40.192 33.728C40.544 33.408 40.944 33.264 41.392 33.296C41.872 33.296 42.416 33.456 43.024 33.776C43.696 34.096 44.16 34.432 44.416 34.784C44.672 35.104 44.768 35.504 44.704 35.984C44.64 36.432 44.432 37.008 44.08 37.712L28.288 68.816C27.808 69.872 27.296 70.48 26.752 70.64C26.24 70.832 25.504 70.72 24.544 70.304ZM65.191 68.672C63.623 68.672 62.039 68.448 60.439 68C58.839 67.52 57.303 66.816 55.831 65.888C54.359 64.928 53.047 63.76 51.895 62.384C50.775 60.976 49.879 59.36 49.207 57.536C48.535 55.68 48.199 53.632 48.199 51.392C48.199 49.184 48.535 47.2 49.207 45.44C49.879 43.648 50.775 42.08 51.895 40.736C53.047 39.392 54.343 38.272 55.783 37.376C57.255 36.48 58.791 35.808 60.391 35.36C62.023 34.88 63.639 34.624 65.239 34.592C66.871 34.592 68.279 34.768 69.463 35.12C70.647 35.472 71.607 35.856 72.343 36.272C73.079 36.656 73.575 36.928 73.831 37.088C74.343 37.408 74.823 37.776 75.271 38.192C75.751 38.576 76.007 39.056 76.039 39.632C76.071 40.016 76.023 40.368 75.895 40.688C75.767 40.976 75.591 41.28 75.367 41.6C74.983 42.144 74.599 42.544 74.215 42.8C73.831 43.056 73.447 43.184 73.063 43.184C72.711 43.184 72.375 43.088 72.055 42.896C71.767 42.704 71.399 42.464 70.951 42.176C70.759 42.048 70.407 41.856 69.895 41.6C69.415 41.312 68.759 41.056 67.927 40.832C67.127 40.608 66.151 40.496 64.999 40.496C63.623 40.496 62.279 40.736 60.967 41.216C59.655 41.696 58.471 42.416 57.415 43.376C56.391 44.304 55.575 45.472 54.967 46.88C54.359 48.256 54.055 49.84 54.055 51.632C54.055 53.424 54.359 55.024 54.967 56.432C55.575 57.808 56.391 58.976 57.415 59.936C58.471 60.864 59.655 61.568 60.967 62.048C62.279 62.528 63.623 62.768 64.999 62.768C66.087 62.768 67.015 62.672 67.783 62.48C68.583 62.256 69.255 62 69.799 61.712C70.375 61.392 70.807 61.152 71.095 60.992C71.447 60.768 71.783 60.56 72.103 60.368C72.423 60.176 72.759 60.08 73.111 60.08C73.495 60.08 73.863 60.208 74.215 60.464C74.599 60.72 74.967 61.136 75.319 61.712C75.543 62.064 75.719 62.4 75.847 62.72C75.975 63.04 76.023 63.376 75.991 63.728C75.959 64.304 75.703 64.8 75.223 65.216C74.775 65.6 74.295 65.936 73.783 66.224C73.527 66.384 73.031 66.672 72.295 67.088C71.591 67.472 70.647 67.824 69.463 68.144C68.279 68.496 66.855 68.672 65.191 68.672Z" fill="#931FFF"/>
</svg>
