<svg width="65" height="72" viewBox="0 0 65 72" fill="none" xmlns="http://www.w3.org/2000/svg">
<path d="M57.3537 42.5795L62 50.7481C61.448 51.8264 60.8311 52.8854 60.1481 53.9201C59.4651 54.9548 58.734 55.9386 57.9596 56.8703L48.8196 55.8521C46.3746 57.8563 43.553 59.4186 40.4767 60.4171L36.2036 68.7983C34.9987 68.9314 33.774 69 32.5335 69C31.2931 69 30.0683 68.9314 28.8634 68.7983L24.5795 60.4134C21.5015 59.4131 18.6787 57.8478 16.2336 55.8407L7.04059 56.8688C6.26605 55.9371 5.5349 54.9534 4.852 53.9186C4.16914 52.8839 3.55213 51.825 3 50.7466L7.67295 42.5318C7.12853 40.4521 6.84292 38.251 6.84292 36.0007C6.84292 33.708 7.14379 31.4856 7.70825 29.3707L3.00143 21.0987C3.55352 20.0203 4.17054 18.9614 4.8534 17.9267C5.53629 16.892 6.26745 15.9082 7.04199 14.9764L16.419 16.0287C18.8351 14.0761 21.5822 12.5584 24.6054 11.5794M24.5912 11.5799L28.8627 3.20141C30.0676 3.06831 31.2923 3 32.5328 3C33.7733 3 34.9976 3.06831 36.2029 3.20141L40.4742 11.5799C43.4998 12.5596 46.2549 14.0647 48.6724 16.0195L57.9574 14.9776C58.7318 15.9094 59.4629 16.8931 60.1459 17.9278C60.8285 18.9625 61.4458 20.0215 61.9978 21.0998L57.3397 29.2889M57.3404 29.3017C57.9166 31.4372 58.2242 33.683 58.2242 36.0007C58.2242 38.2788 57.9273 40.4876 57.3694 42.5905M43.5438 36.0007C43.5438 42.0757 38.6145 47.0007 32.5335 47.0007C26.4526 47.0007 21.5233 42.0757 21.5233 36.0007C21.5233 29.9254 26.4526 25.0005 32.5335 25.0005C38.6145 25.0005 43.5438 29.9254 43.5438 36.0007Z" stroke="black" stroke-width="5" stroke-linecap="round" stroke-linejoin="round"/>
</svg>
