<svg width="84" height="84" viewBox="0 0 84 84" fill="none" xmlns="http://www.w3.org/2000/svg">
<path d="M55 42C55 49.1799 49.1799 55 42 55C34.8201 55 29 49.1799 29 42C29 34.8201 34.8201 29 42 29C49.1799 29 55 34.8201 55 42Z" stroke="black" stroke-width="5" stroke-linecap="round" stroke-linejoin="round"/>
<path d="M45.9199 3.26022C45.0281 3 44.0189 3 42 3C39.9811 3 38.9719 3 38.0801 3.26022C36.7749 3.64107 35.6218 4.42168 34.7833 5.49214C34.2104 6.22348 33.8356 7.16069 33.0859 9.03512C32.0082 11.7296 29.017 13.1171 26.2638 12.1997L23.7904 11.3755C22.0359 10.7907 21.1586 10.4982 20.2985 10.4481C19.035 10.3745 17.7775 10.6714 16.6804 11.3022C15.9335 11.7317 15.2796 12.3856 13.9719 13.6934C12.582 15.0833 11.887 15.7782 11.4455 16.5715C10.7968 17.737 10.5225 19.0738 10.6596 20.4005C10.7529 21.3036 11.1179 22.2161 11.8479 24.0412C12.9912 26.8993 11.8913 30.1647 9.25179 31.7488L8.04924 32.4704C6.20801 33.5751 5.28739 34.1276 4.61867 34.8881C4.02691 35.5611 3.58071 36.3493 3.30806 37.203C3 38.1676 3 39.2518 3 41.4206C3 43.9886 3 45.2721 3.41002 46.3715C3.77233 47.3426 4.36162 48.2127 5.12871 48.9099C5.99685 49.6986 7.17712 50.1709 9.53753 51.1152C11.9498 52.0798 13.1918 54.7578 12.3702 57.2226L11.4379 60.0197C10.7922 61.9567 10.4692 62.9257 10.4399 63.8773C10.4046 65.0217 10.6721 66.1549 11.2154 67.1624C11.6673 68.0009 12.3894 68.7228 13.8333 70.1667C15.2773 71.6105 15.9994 72.3325 16.8374 72.7844C17.8451 73.3278 18.9784 73.5956 20.1227 73.5601C21.0744 73.5306 22.0431 73.2078 23.9804 72.5621L26.264 71.8008C29.017 70.8834 32.0082 72.2705 33.0859 74.965C33.8356 76.8391 34.2104 77.7764 34.7833 78.5079C35.6218 79.5782 36.7749 80.3591 38.0801 80.74C38.9719 81 39.9811 81 42 81C44.0189 81 45.0281 81 45.9199 80.74C47.2251 80.3591 48.3782 79.5782 49.2167 78.5079C49.7896 77.7764 50.1644 76.8391 50.9141 74.965C51.9918 72.2705 54.9831 70.8834 57.7356 71.8016L60.0176 72.5626C61.955 73.2082 62.9239 73.5311 63.8755 73.5605C65.02 73.5956 66.1531 73.3283 67.1606 72.7849C67.9987 72.3329 68.7211 71.611 70.1649 70.1671C71.6088 68.7232 72.3307 68.0009 72.7827 67.1628C73.3261 66.1553 73.5935 65.0217 73.5584 63.8777C73.5289 62.9261 73.2061 61.9572 72.5604 60.0197L71.6287 57.2247C70.8067 54.7591 72.0491 52.0802 74.4623 51.1152C76.8227 50.1709 78.0031 49.6986 78.8715 48.9099C79.6385 48.2127 80.2278 47.3426 80.5901 46.3715C81 45.2721 81 43.9886 81 41.4206C81 39.2518 81 38.1676 80.6919 37.203C80.4193 36.3493 79.973 35.5611 79.3815 34.8881C78.7124 34.1276 77.792 33.5751 75.9508 32.4704L74.7466 31.748C72.1071 30.1642 71.0069 26.8989 72.1505 24.0408C72.8802 22.2159 73.2455 21.3033 73.3387 20.4002C73.4756 19.0735 73.2013 17.7367 72.5526 16.5712C72.111 15.7779 71.4164 15.0829 70.0263 13.693C68.7185 12.3853 68.0646 11.7314 67.3179 11.3019C66.2207 10.671 64.9632 10.3742 63.6996 10.4478C62.8394 10.4979 61.9624 10.7903 60.2078 11.3752L57.7361 12.1991C54.9831 13.1168 51.9918 11.7295 50.9141 9.03512C50.1644 7.16069 49.7896 6.22348 49.2167 5.49214C48.3782 4.42168 47.2251 3.64107 45.9199 3.26022Z" stroke="black" stroke-width="5" stroke-linecap="round" stroke-linejoin="round"/>
</svg>
