<svg width="137" height="93" viewBox="0 0 137 93" fill="none" xmlns="http://www.w3.org/2000/svg">
<path d="M68.5 84.7425C70.0818 84.7425 71.5418 84.5601 73.1843 84.4387L76.7128 91.1291C77.382 92.4671 78.7203 93.1968 80.363 92.9537C81.8838 92.6495 82.9789 91.5549 83.1614 89.9125L84.2565 82.5531C87.2373 81.7623 90.2181 80.6067 93.1382 79.3294L98.6134 84.256C99.7692 85.3508 101.229 85.5942 102.75 84.7425C104.089 84.0128 104.636 82.5531 104.332 80.9716L102.811 73.6729C105.305 71.909 107.8 69.902 110.05 67.6515L116.864 70.5103C118.385 71.1183 119.784 70.8144 120.94 69.4154C121.974 68.3205 122.095 66.7391 121.244 65.401L117.29 59.0755C119.115 56.5211 120.575 53.7838 121.974 50.8646L129.396 51.2295C130.977 51.2902 132.315 50.4388 132.864 48.9183C133.35 47.3976 132.864 45.9378 131.585 44.9647L125.807 40.3423C126.598 37.4225 127.206 34.2599 127.449 30.9755L134.506 28.7861C136.027 28.2385 137 27.0829 137 25.4407C137 23.8593 136.027 22.7037 134.506 22.1564L127.449 19.9056C127.206 16.6213 126.598 13.5804 125.807 10.5999L131.585 5.91678C132.864 5.00434 133.35 3.60533 132.864 2.08486C132.315 0.564138 130.977 -0.287316 129.396 -0.226591L121.974 0.0778141C120.575 -2.84193 119.115 -5.57872 117.29 -8.13333L121.244 -14.4589C122.095 -15.7362 121.974 -17.3176 120.94 -18.4125C119.784 -19.8113 118.385 -20.1764 116.864 -19.5071L110.05 -16.7701C107.8 -18.8991 105.305 -20.9671 102.811 -22.7307L104.332 -29.9687C104.636 -31.6109 104.089 -33.0706 102.75 -33.8006C101.229 -34.5914 99.7692 -34.4697 98.6134 -33.2531L93.1382 -28.448C90.2181 -29.7253 87.2373 -30.7594 84.2565 -31.6109L83.1614 -38.9703C82.9789 -40.5518 81.8838 -41.7074 80.363 -41.9508C78.7203 -42.194 77.382 -41.5249 76.7128 -40.1869L73.1843 -33.4962C71.5418 -33.6179 70.0818 -33.7397 68.5 -33.7397C66.8575 -33.7397 65.3975 -33.6179 63.6942 -33.4962L60.2267 -40.1869C59.5573 -41.5249 58.219 -42.194 56.5158 -41.9508C54.9947 -41.7074 53.9606 -40.5518 53.7172 -38.9703L52.6831 -31.6716C49.6413 -30.7594 46.6604 -29.7253 43.8011 -28.448L38.3262 -33.2531C37.1093 -34.4697 35.6493 -34.5914 34.1893 -33.8006C32.851 -33.0706 32.3033 -31.6109 32.6075 -29.9687L34.1283 -22.7307C31.5734 -20.9671 29.0793 -18.8991 26.8281 -16.7701L20.0756 -19.5071C18.5545 -20.1764 17.0945 -19.8113 15.9387 -18.4125C14.9656 -17.3176 14.8438 -15.7362 15.6347 -14.5199L19.6496 -8.13333C17.8247 -5.57872 16.3646 -2.84193 14.9656 0.0778141L7.48266 -0.226591C5.90114 -0.287316 4.56258 0.564138 4.0759 2.08486C3.58922 3.60533 4.01517 5.00434 5.29273 5.91678L11.1329 10.5999C10.342 13.5804 9.67284 16.6213 9.49037 19.9056L2.4334 22.1564C0.851623 22.6427 0 23.7983 0 25.4407C0 27.0829 0.851623 28.2385 2.4334 28.7861L9.49037 31.0363C9.67284 34.2599 10.342 37.4225 11.1329 40.3423L5.29273 44.9647C4.01517 45.9378 3.58922 47.3976 4.0759 48.9183C4.56258 50.4388 5.90114 51.2902 7.48266 51.2295L14.9656 50.8646C16.3646 53.7838 17.8247 56.5211 19.5889 59.0755L15.6955 65.401C14.7828 66.7391 14.9046 68.3205 15.9387 69.4154C17.0945 70.8144 18.5545 71.1183 20.0756 70.5103L26.8281 67.6515C29.0793 69.902 31.5734 71.909 34.1283 73.6729L32.6075 80.9716C32.3033 82.5531 32.851 84.0128 34.1893 84.7425C35.71 85.5942 37.1701 85.3508 38.3262 84.256L43.7404 79.3294C46.6604 80.6067 49.6413 81.7623 52.6831 82.5531L53.7172 89.9125C53.9606 91.5549 54.9947 92.6495 56.5158 92.9537C58.219 93.1968 59.5573 92.4671 60.2267 91.1291L63.6942 84.4387C65.3367 84.5601 66.8575 84.7425 68.5 84.7425ZM83.7698 21.6088C80.9104 13.9452 75.3138 9.74844 68.3175 9.74844C67.2834 9.74844 66.0669 9.87015 64.1202 10.2957L46.6604 -19.5071C53.1697 -22.7307 60.5914 -24.4946 68.5 -24.4946C95.0241 -24.4946 115.83 -4.36239 117.716 21.6088H83.7698ZM19.1022 25.5014C19.1022 8.59284 27.0716 -6.30872 39.6645 -15.3103L57.2457 14.675C53.9606 18.081 52.4399 21.7912 52.4399 25.7446C52.4399 29.5765 53.8999 33.1043 57.2457 36.6321L39.2385 66.0701C26.9498 57.0075 19.1022 42.2886 19.1022 25.5014ZM61.0174 25.6839C61.0174 21.5481 64.5458 18.3244 68.4393 18.3244C72.5762 18.3244 75.9829 21.5481 75.9829 25.6839C75.9829 29.759 72.5762 33.1043 68.4393 33.1043C64.5458 33.1043 61.0174 29.759 61.0174 25.6839ZM68.5 75.4975C60.4092 75.4975 52.8655 73.6122 46.2345 70.3278L64.1202 41.072C66.0059 41.5586 67.2834 41.6803 68.3175 41.6803C75.3745 41.6803 80.9712 37.3618 83.7698 29.5158H117.716C115.769 55.3653 94.9631 75.4975 68.5 75.4975Z" fill="black"/>
</svg>
