<svg width="217" height="222" viewBox="0 0 217 222" fill="none" xmlns="http://www.w3.org/2000/svg">
<path fill-rule="evenodd" clip-rule="evenodd" d="M86.3444 0C80.2263 0 75.2666 4.96969 75.2666 11.1V28.6578C67.5648 31.7813 60.4056 35.9555 53.965 40.9995L38.7739 32.2114C36.2296 30.7395 33.2058 30.3405 30.3679 31.1024C27.53 31.8644 25.1105 33.7248 23.6415 36.2742L1.48598 74.7258C-1.57303 80.0348 0.242285 86.8234 5.54066 89.8889L20.7262 98.6734C20.1666 102.706 19.8779 106.822 19.8779 111C19.8779 115.178 20.1666 119.293 20.7262 123.327L5.54078 132.111C2.99633 133.583 1.1398 136.007 0.379317 138.851C-0.38106 141.695 0.0169637 144.724 1.48598 147.274L23.6415 185.725C25.1105 188.275 27.5301 190.135 30.368 190.898C33.2059 191.659 36.2296 191.261 38.774 189.789L53.9652 181C60.4058 186.044 67.5649 190.218 75.2666 193.342V210.9C75.2666 217.031 80.2263 222 86.3444 222H130.656C136.773 222 141.734 217.031 141.734 210.9V193.342C149.435 190.218 156.594 186.044 163.035 181L178.226 189.789C180.77 191.261 183.794 191.659 186.632 190.898C189.47 190.135 191.889 188.275 193.358 185.726L215.514 147.275C216.983 144.725 217.381 141.695 216.62 138.851C215.86 136.008 214.004 133.583 211.459 132.111L196.274 123.327C196.833 119.294 197.122 115.178 197.122 111C197.122 106.822 196.833 102.706 196.274 98.6734L211.459 89.8889C216.758 86.8232 218.573 80.0346 215.514 74.7255L193.358 36.274C191.889 33.7245 189.47 31.8642 186.632 31.1022C183.794 30.3403 180.77 30.7391 178.226 32.2111L163.035 40.9994C156.594 35.9553 149.435 31.7813 141.734 28.6578V11.1C141.734 4.96969 136.773 0 130.656 0H86.3444ZM97.4226 36.5174V22.2H119.578V36.5174C119.578 41.4283 122.798 45.7554 127.495 47.1562C137.588 50.1661 146.691 55.522 154.166 62.6072C157.725 65.9811 163.074 66.611 167.318 64.1562L179.71 56.9868L190.788 76.2126L178.411 83.3729C174.17 85.8258 172.04 90.7769 173.171 95.5499C174.343 100.497 174.967 105.669 174.967 111C174.967 116.331 174.343 121.503 173.171 126.45C172.04 131.223 174.17 136.174 178.411 138.627L190.788 145.787L179.71 165.013L167.317 157.843C163.074 155.389 157.725 156.018 154.165 159.393C146.691 166.478 137.588 171.834 127.495 174.843C122.798 176.244 119.578 180.571 119.578 185.482V199.8H97.4226V185.482C97.4226 180.571 94.2011 176.244 89.5042 174.843C79.4111 171.834 70.3093 166.478 62.8341 159.393C59.2746 156.018 53.926 155.389 49.6828 157.843L37.2898 165.013L26.2121 145.787L38.5892 138.627C42.8292 136.174 44.9593 131.223 43.8285 126.45C42.6565 121.503 42.0334 116.331 42.0334 111C42.0334 105.669 42.6564 100.497 43.8285 95.5499C44.9593 90.7769 42.8291 85.826 38.5892 83.3731L26.2121 76.2129L37.2898 56.9872L49.6825 64.1564C53.9259 66.6112 59.2744 65.9812 62.834 62.6073C70.3092 55.5221 79.4111 50.1662 89.5042 47.1562C94.2011 45.7554 97.4226 41.4283 97.4226 36.5174ZM86.3446 111C86.3446 98.7389 96.2638 88.8 108.5 88.8C120.737 88.8 130.656 98.7389 130.656 111C130.656 123.261 120.737 133.2 108.5 133.2C96.2638 133.2 86.3446 123.261 86.3446 111ZM108.5 66.6C84.0278 66.6 64.1891 86.4785 64.1891 111C64.1891 135.521 84.0278 155.4 108.5 155.4C132.972 155.4 152.811 135.521 152.811 111C152.811 86.4785 132.972 66.6 108.5 66.6Z" fill="black"/>
</svg>
