<svg width="137" height="135" viewBox="0 0 137 135" fill="none" xmlns="http://www.w3.org/2000/svg">
<path d="M68.5 126.743C70.0818 126.743 71.5418 126.56 73.1843 126.439L76.7128 133.129C77.382 134.467 78.7203 135.197 80.363 134.954C81.8838 134.65 82.9789 133.555 83.1614 131.912L84.2565 124.553C87.2373 123.762 90.2181 122.607 93.1382 121.329L98.6134 126.256C99.7692 127.351 101.229 127.594 102.75 126.743C104.089 126.013 104.636 124.553 104.332 122.972L102.811 115.673C105.305 113.909 107.8 111.902 110.05 109.652L116.864 112.51C118.385 113.118 119.784 112.814 120.94 111.415C121.974 110.321 122.095 108.739 121.244 107.401L117.29 101.075C119.115 98.5211 120.575 95.7838 121.974 92.8646L129.396 93.2295C130.977 93.2902 132.315 92.4388 132.864 90.9183C133.35 89.3976 132.864 87.9378 131.585 86.9647L125.807 82.3423C126.598 79.4225 127.206 76.2599 127.449 72.9755L134.506 70.7861C136.027 70.2385 137 69.0829 137 67.4407C137 65.8593 136.027 64.7037 134.506 64.1564L127.449 61.9056C127.206 58.6213 126.598 55.5804 125.807 52.5999L131.585 47.9168C132.864 47.0043 133.35 45.6053 132.864 44.0849C132.315 42.5641 130.977 41.7127 129.396 41.7734L121.974 42.0778C120.575 39.1581 119.115 36.4213 117.29 33.8667L121.244 27.5411C122.095 26.2638 121.974 24.6824 120.94 23.5875C119.784 22.1887 118.385 21.8236 116.864 22.4929L110.05 25.2299C107.8 23.1009 105.305 21.0329 102.811 19.2693L104.332 12.0313C104.636 10.3891 104.089 8.92936 102.75 8.19936C101.229 7.40864 99.7692 7.53035 98.6134 8.74693L93.1382 13.552C90.2181 12.2747 87.2373 11.2406 84.2565 10.3891L83.1614 3.02967C82.9789 1.44822 81.8838 0.292626 80.363 0.0492065C78.7203 -0.193954 77.382 0.475061 76.7128 1.81309L73.1843 8.50377C71.5418 8.38206 70.0818 8.26035 68.5 8.26035C66.8575 8.26035 65.3975 8.38206 63.6942 8.50377L60.2267 1.81309C59.5573 0.475061 58.219 -0.193954 56.5158 0.0492065C54.9947 0.292626 53.9606 1.44822 53.7172 3.02967L52.6831 10.3284C49.6413 11.2406 46.6604 12.2747 43.8011 13.552L38.3262 8.74693C37.1093 7.53035 35.6493 7.40864 34.1893 8.19936C32.851 8.92936 32.3033 10.3891 32.6075 12.0313L34.1283 19.2693C31.5734 21.0329 29.0793 23.1009 26.8281 25.2299L20.0756 22.4929C18.5545 21.8236 17.0945 22.1887 15.9387 23.5875C14.9656 24.6824 14.8438 26.2638 15.6347 27.4801L19.6496 33.8667C17.8247 36.4213 16.3646 39.1581 14.9656 42.0778L7.48266 41.7734C5.90114 41.7127 4.56258 42.5641 4.0759 44.0849C3.58922 45.6053 4.01517 47.0043 5.29273 47.9168L11.1329 52.5999C10.342 55.5804 9.67284 58.6213 9.49037 61.9056L2.4334 64.1564C0.851623 64.6427 0 65.7983 0 67.4407C0 69.0829 0.851623 70.2385 2.4334 70.7861L9.49037 73.0363C9.67284 76.2599 10.342 79.4225 11.1329 82.3423L5.29273 86.9647C4.01517 87.9378 3.58922 89.3976 4.0759 90.9183C4.56258 92.4388 5.90114 93.2902 7.48266 93.2295L14.9656 92.8646C16.3646 95.7838 17.8247 98.5211 19.5889 101.075L15.6955 107.401C14.7828 108.739 14.9046 110.321 15.9387 111.415C17.0945 112.814 18.5545 113.118 20.0756 112.51L26.8281 109.652C29.0793 111.902 31.5734 113.909 34.1283 115.673L32.6075 122.972C32.3033 124.553 32.851 126.013 34.1893 126.743C35.71 127.594 37.1701 127.351 38.3262 126.256L43.7404 121.329C46.6604 122.607 49.6413 123.762 52.6831 124.553L53.7172 131.912C53.9606 133.555 54.9947 134.65 56.5158 134.954C58.219 135.197 59.5573 134.467 60.2267 133.129L63.6942 126.439C65.3367 126.56 66.8575 126.743 68.5 126.743ZM83.7698 63.6088C80.9104 55.9452 75.3138 51.7484 68.3175 51.7484C67.2834 51.7484 66.0669 51.8701 64.1202 52.2957L46.6604 22.4929C53.1697 19.2693 60.5914 17.5054 68.5 17.5054C95.0241 17.5054 115.83 37.6376 117.716 63.6088H83.7698ZM19.1022 67.5014C19.1022 50.5928 27.0716 35.6913 39.6645 26.6897L57.2457 56.675C53.9606 60.081 52.4399 63.7912 52.4399 67.7446C52.4399 71.5765 53.8999 75.1043 57.2457 78.6321L39.2385 108.07C26.9498 99.0075 19.1022 84.2886 19.1022 67.5014ZM61.0174 67.6839C61.0174 63.5481 64.5458 60.3244 68.4393 60.3244C72.5762 60.3244 75.9829 63.5481 75.9829 67.6839C75.9829 71.759 72.5762 75.1043 68.4393 75.1043C64.5458 75.1043 61.0174 71.759 61.0174 67.6839ZM68.5 117.498C60.4092 117.498 52.8655 115.612 46.2345 112.328L64.1202 83.072C66.0059 83.5586 67.2834 83.6803 68.3175 83.6803C75.3745 83.6803 80.9712 79.3618 83.7698 71.5158H117.716C115.769 97.3653 94.9631 117.498 68.5 117.498Z" fill="black"/>
</svg>
