<svg width="104" height="80" viewBox="0 0 104 80" fill="none" xmlns="http://www.w3.org/2000/svg">
<path d="M86.1187 33.8452V58.0676C86.1284 58.752 85.9386 59.4245 85.5726 60.0029C85.2065 60.5813 84.6799 61.0406 84.0572 61.3247L59.5668 72.1063C56.5481 73.4488 53.2597 74.0748 49.9588 73.9353C46.6579 73.7959 43.4341 72.8947 40.5394 71.3023L22.9549 61.6546C22.3927 61.3471 21.9237 60.8939 21.5972 60.3425C21.2707 59.7911 21.0988 59.1619 21.0996 58.5211V34.5255" stroke="#931FFF" stroke-width="4" stroke-linecap="round"/>
<path d="M47.3846 3.37643L5.35105 23.2903C5.05019 23.435 4.79631 23.6618 4.61863 23.9444C4.44094 24.227 4.34668 24.5541 4.34668 24.888C4.34668 25.2218 4.44094 25.5489 4.61863 25.8315C4.79631 26.1142 5.05019 26.3409 5.35105 26.4856L46.0446 47.1004C48.0184 48.0656 50.1866 48.5673 52.3837 48.5673C54.5808 48.5673 56.7489 48.0656 58.7227 47.1004L100.53 26.8361C100.83 26.6913 101.084 26.4646 101.262 26.182C101.44 25.8993 101.534 25.5723 101.534 25.2384C101.534 24.9046 101.44 24.5775 101.262 24.2949C101.084 24.0122 100.83 23.7855 100.53 23.6408L59.8565 3.50012C57.9232 2.53488 55.7956 2.02213 53.6348 2.0007C51.474 1.97927 49.3367 2.44972 47.3846 3.37643Z" stroke="#931FFF" stroke-width="4" stroke-linecap="round"/>
<path d="M52.9105 25.3103L8.23828 27.9696L8.85673 53.3258" stroke="#931FFF" stroke-width="4" stroke-linecap="round"/>
<path d="M8.91769 64.602C11.7982 64.602 14.1332 62.2669 14.1332 59.3864C14.1332 56.506 11.7982 54.1709 8.91769 54.1709C6.03723 54.1709 3.70215 56.506 3.70215 59.3864C3.70215 62.2669 6.03723 64.602 8.91769 64.602Z" stroke="#931FFF" stroke-width="4" stroke-linecap="round"/>
<path d="M10.7099 64.2725L14.8329 77.1979H3L7.1848 64.2725" stroke="#931FFF" stroke-width="4" stroke-linecap="round"/>
</svg>
