<svg width="30" height="30" viewBox="0 0 30 30" fill="none" xmlns="http://www.w3.org/2000/svg">
<path d="M2 2H28M15 23.6667L7.77778 28M15 23.6667L22.2222 28M15 23.6667V28M15 23.6667V19.3333M15 19.3333H20.4889C22.1068 19.3333 22.9158 19.3333 23.5338 19.0184C24.0773 18.7415 24.5193 18.2995 24.7962 17.756C25.1111 17.1381 25.1111 16.329 25.1111 14.7111V7.77778M15 19.3333H9.51111C7.89319 19.3333 7.08421 19.3333 6.46625 19.0184C5.92266 18.7415 5.48072 18.2995 5.20376 17.756C4.88889 17.1381 4.88889 16.329 4.88889 14.7111V7.77778" stroke="#931FFF" stroke-width="3" stroke-linecap="round" stroke-linejoin="round"/>
</svg>
